<?xml version="1.0" encoding="UTF-8" standalone="no"?>
<!-- Creator: CorelDRAW -->

<svg
   xmlns:dc="http://purl.org/dc/elements/1.1/"
   xmlns:cc="http://creativecommons.org/ns#"
   xmlns:rdf="http://www.w3.org/1999/02/22-rdf-syntax-ns#"
   xmlns:svg="http://www.w3.org/2000/svg"
   xmlns="http://www.w3.org/2000/svg"
   xmlns:sodipodi="http://sodipodi.sourceforge.net/DTD/sodipodi-0.dtd"
   xmlns:inkscape="http://www.inkscape.org/namespaces/inkscape"
   xml:space="preserve"
   width="176.99986mm"
   height="123.99998mm"
   style="fill-rule:evenodd;image-rendering:optimizeQuality;shape-rendering:geometricPrecision;text-rendering:geometricPrecision"
   viewBox="0 0 6968.903 4881.0067"
   id="svg2"
   version="1.1"
   inkscape:version="0.91 r13725"
   sodipodi:docname="reclutamientoSeleccion.svg"><metadata
     id="metadata529"><rdf:RDF><cc:Work
         rdf:about=""><dc:format>image/svg+xml</dc:format><dc:type
           rdf:resource="http://purl.org/dc/dcmitype/StillImage" /><dc:title></dc:title></cc:Work></rdf:RDF></metadata><sodipodi:namedview
     pagecolor="#ffffff"
     bordercolor="#666666"
     borderopacity="1"
     objecttolerance="10"
     gridtolerance="10"
     guidetolerance="10"
     inkscape:pageopacity="0"
     inkscape:pageshadow="2"
     inkscape:window-width="1366"
     inkscape:window-height="705"
     id="namedview527"
     showgrid="false"
     units="mm"
     inkscape:zoom="0.49336631"
     inkscape:cx="333.07064"
     inkscape:cy="239.1732"
     inkscape:window-x="-8"
     inkscape:window-y="-8"
     inkscape:window-maximized="1"
     inkscape:current-layer="svg2" /><defs
     id="defs4"><style
       type="text/css"
       id="style6"><![CDATA[
    .str0 {stroke:#1F1A17;stroke-width:3}
    .str1 {stroke:#4D485B;stroke-width:111}
    .fil7 {fill:none}
    .fil3 {fill:#0A0B0C}
    .fil8 {fill:#1F1A17}
    .fil5 {fill:#3C746B}
    .fil0 {fill:#4D4948}
    .fil9 {fill:#8F5444}
    .fil14 {fill:#936B6E}
    .fil6 {fill:#97947F}
    .fil10 {fill:#DB214C}
    .fil17 {fill:#E77817}
    .fil11 {fill:#F5C491}
    .fil2 {fill:#F7C5B4}
    .fil12 {fill:#FFFB9C}
    .fil4 {fill:#FFFFFF}
    .fil16 {fill:#0065A8}
    .fil13 {fill:#282376}
    .fil15 {fill:url(#id0)}
    .fil1 {fill:url(#id1)}
   ]]></style><linearGradient
       id="id0"
       gradientUnits="userSpaceOnUse"
       x1="7104"
       y1="3781"
       x2="7188"
       y2="3478"><stop
         offset="0"
         style="stop-color:#1F1A17"
         id="stop9" /><stop
         offset="1"
         style="stop-color:#FFFFFF"
         id="stop11" /></linearGradient><radialGradient
       id="id1"
       gradientUnits="userSpaceOnUse"
       cx="3741"
       cy="3387"
       r="3618"
       fx="3741"
       fy="3387"><stop
         offset="0"
         style="stop-color:#FFFFFF"
         id="stop14" /><stop
         offset="1"
         style="stop-color:#616F85"
         id="stop16" /></radialGradient></defs><g
     id="Capa 1"
     transform="matrix(0.94398389,0,0,0.90461748,-38.148489,47.417291)"><g
       id="g19"><rect
         class="fil0 str0"
         x="123"
         y="79"
         width="7236"
         height="1421"
         id="rect21"
         style="fill:#4d4948;stroke:#1f1a17;stroke-width:3.24643326" /><rect
         class="fil1 str0"
         x="123"
         y="1501"
         width="7236"
         height="3773"
         id="rect23"
         style="fill:url(#id1);stroke:#1f1a17;stroke-width:3.24643326" /><g
         id="g25"><g
           id="g27"><path
             class="fil2 str0"
             d="m 4796,3906 13,56 35,38 17,17 c 12,15 6,18 8,31 l 4,31 -12,2 -11,-23 -5,-21 c 3,18 0,27 5,52 l 1,15 c -5,22 -14,28 -17,9 l -14,-50 10,62 c 2,19 -2,26 -17,6 l -9,-55 5,56 c 3,22 -8,18 -17,8 l -2,-50 c -6,10 -1,40 -16,31 l 3,-33 -8,-21 -10,-55 -31,-77 68,-29 z"
             id="path29"
             inkscape:connector-curvature="0"
             style="fill:#f7c5b4;stroke:#1f1a17;stroke-width:3.24643326" /><path
             class="fil2 str0"
             d="m 3932,3920 -4,56 -27,44 -14,20 c -10,16 -3,19 -3,32 l 1,31 13,0 7,-25 1,-22 c 0,19 4,27 4,52 l 2,16 c 8,20 18,25 18,5 l 5,-51 0,63 c 2,19 7,25 18,3 l 0,-56 5,56 c 0,22 10,16 18,5 l -7,-50 c 8,10 8,40 22,28 l -9,-32 3,-22 1,-56 18,-81 -72,-16 z"
             id="path31"
             inkscape:connector-curvature="0"
             style="fill:#f7c5b4;stroke:#1f1a17;stroke-width:3.24643326" /><path
             class="fil2"
             d="m 4398,3070 c 102,0 155,63 155,151 0,87 -53,166 -155,166 -102,0 -160,-75 -160,-162 0,-88 58,-155 160,-155 z"
             id="path33"
             inkscape:connector-curvature="0"
             style="fill:#f7c5b4" /><path
             class="fil2"
             d="m 4294,3351 -37,64 253,11 -30,-70 -186,-5 z"
             id="path35"
             inkscape:connector-curvature="0"
             style="fill:#f7c5b4" /><path
             class="fil3 str0"
             d="m 4290,4785 24,100 -67,14 -22,-29 -61,40 -119,18 -81,-12 -7,-38 70,-17 78,-18 16,-81 169,23 z"
             id="path37"
             inkscape:connector-curvature="0"
             style="fill:#0a0b0c;stroke:#1f1a17;stroke-width:3.24643326" /><path
             class="fil3 str0"
             d="m 4527,4802 -24,101 67,13 22,-28 61,39 119,18 81,-12 7,-37 -70,-18 -78,-18 -16,-81 -169,23 z"
             id="path39"
             inkscape:connector-curvature="0"
             style="fill:#0a0b0c;stroke:#1f1a17;stroke-width:3.24643326" /><g
             id="g41"><path
               class="fil4 str0"
               d="m 4271,3383 118,20 -7,37 -117,-21 6,-36 z"
               id="path43"
               inkscape:connector-curvature="0"
               style="fill:#ffffff;stroke:#1f1a17;stroke-width:3.24643326" /><path
               class="fil4 str0"
               d="m 4391,3405 117,-21 7,37 -118,20 -6,-36 z"
               id="path45"
               inkscape:connector-curvature="0"
               style="fill:#ffffff;stroke:#1f1a17;stroke-width:3.24643326" /></g><g
             id="g47"><path
               class="fil5 str0"
               d="m 4352,3419 12,41 53,0 7,-41 -72,0 z"
               id="path49"
               inkscape:connector-curvature="0"
               style="fill:#3c746b;stroke:#1f1a17;stroke-width:3.24643326" /><path
               class="fil5 str0"
               d="m 4364,3463 -8,460 34,55 42,-55 -23,-466 -45,6 z"
               id="path51"
               inkscape:connector-curvature="0"
               style="fill:#3c746b;stroke:#1f1a17;stroke-width:3.24643326" /></g><path
             class="fil6 str0"
             d="m 4113,3982 -8,229 -3,163 -16,195 4,237 227,26 57,-576 140,581 189,0 -57,-788 -533,-67 z"
             id="path53"
             inkscape:connector-curvature="0"
             style="fill:#97947f;stroke:#1f1a17;stroke-width:3.24643326" /><path
             class="fil6 str0"
             d="m 4115,3840 -20,146 305,68 -24,-531 -106,-127 c -48,-6 -94,-10 -142,4 -31,12 -118,126 -175,321 l -45,223 114,8 38,-182 51,-158 4,228 z"
             id="path55"
             inkscape:connector-curvature="0"
             style="fill:#97947f;stroke:#1f1a17;stroke-width:3.24643326" /><path
             class="fil6 str0"
             d="m 4383,4053 27,-514 102,-135 c 23,-1 58,1 81,1 l 63,23 c 48,40 95,178 138,293 l 39,210 -94,61 -34,-127 -60,-222 15,400 -277,10 z"
             id="path57"
             inkscape:connector-curvature="0"
             style="fill:#97947f;stroke:#1f1a17;stroke-width:3.24643326" /><path
             class="fil7 str0"
             d="m 4523,3412 -30,102 1,96 -30,73 -63,139"
             id="path59"
             inkscape:connector-curvature="0"
             style="fill:none;stroke:#1f1a17;stroke-width:3.24643326" /><path
             class="fil7 str0"
             d="m 4239,3395 40,96 -7,71 116,269"
             id="path61"
             inkscape:connector-curvature="0"
             style="fill:none;stroke:#1f1a17;stroke-width:3.24643326" /><path
             class="fil3 str0"
             d="m 4245,3273 -34,-79 10,-55 54,-79 c 65,-17 119,-17 178,-17 l 93,70 17,86 -19,69 -11,-87 -25,-50 -112,-9 -100,19 -41,26 -10,106 z"
             id="path63"
             inkscape:connector-curvature="0"
             style="fill:#0a0b0c;stroke:#1f1a17;stroke-width:3.24643326" /><path
             class="fil7 str0"
             d="m 4345,3313 44,6 43,-2 19,-14 -36,-3 -17,2 -15,0 -38,11 z"
             id="path65"
             inkscape:connector-curvature="0"
             style="fill:none;stroke:#1f1a17;stroke-width:3.24643326" /><path
             class="fil7 str0"
             d="m 4370,3269 17,-7 15,2 19,5"
             id="path67"
             inkscape:connector-curvature="0"
             style="fill:none;stroke:#1f1a17;stroke-width:3.24643326" /><g
             id="g69"><path
               class="fil4 str0"
               d="m 4335,3188 c 15,-1 27,3 27,9 1,6 -11,13 -25,14 -15,1 -27,-3 -27,-9 -1,-6 10,-13 25,-14 z"
               id="path71"
               inkscape:connector-curvature="0"
               style="fill:#ffffff;stroke:#1f1a17;stroke-width:3.24643326" /><path
               class="fil8 str0"
               d="m 4342,3195 c 4,0 8,2 8,5 0,3 -3,6 -7,6 -4,1 -8,-1 -8,-5 -1,-3 3,-5 7,-6 z"
               id="path73"
               inkscape:connector-curvature="0"
               style="fill:#1f1a17;stroke:#1f1a17;stroke-width:3.24643326" /></g><g
             id="g75"><path
               class="fil4 str0"
               d="m 4436,3207 c 14,2 26,-2 27,-9 1,-6 -11,-12 -25,-13 -15,-1 -27,3 -28,9 0,6 11,12 26,13 z"
               id="path77"
               inkscape:connector-curvature="0"
               style="fill:#ffffff;stroke:#1f1a17;stroke-width:3.24643326" /><path
               class="fil8 str0"
               d="m 4442,3200 c 5,1 8,-1 8,-5 1,-3 -2,-6 -7,-6 -4,0 -7,2 -8,5 0,3 3,6 7,6 z"
               id="path79"
               inkscape:connector-curvature="0"
               style="fill:#1f1a17;stroke:#1f1a17;stroke-width:3.24643326" /></g><path
             class="fil8 str0"
             d="m 4350,3166 -24,2 -30,14 27,-4 25,-4 2,-8 z"
             id="path81"
             inkscape:connector-curvature="0"
             style="fill:#1f1a17;stroke:#1f1a17;stroke-width:3.24643326" /><path
             class="fil8 str0"
             d="m 4420,3096 -25,2 -30,15 27,-4 26,-5 2,-8 z"
             id="path83"
             inkscape:connector-curvature="0"
             style="fill:#1f1a17;stroke:#1f1a17;stroke-width:3.24643326" /><path
             class="fil8 str0"
             d="m 4431,3163 25,2 30,14 -27,-4 -26,-5 -2,-7 z"
             id="path85"
             inkscape:connector-curvature="0"
             style="fill:#1f1a17;stroke:#1f1a17;stroke-width:3.24643326" /></g><g
           id="g87"><path
             class="fil9 str0"
             d="m 5548,3505 42,24 13,34 5,16 c 7,12 13,9 23,14 l 26,12 9,-7 -14,-14 -16,-10 c 15,8 24,9 43,19 l 13,5 c 23,3 33,-1 19,-9 l -37,-23 50,25 c 16,6 24,6 15,-9 l -44,-22 47,19 c 18,9 21,0 18,-8 l -43,-16 c 12,-1 36,11 37,-2 l -31,-7 -15,-11 -44,-23 -50,-43 -66,36 z"
             id="path89"
             inkscape:connector-curvature="0"
             style="fill:#8f5444;stroke:#1f1a17;stroke-width:3.24643326" /><path
             class="fil9 str0"
             d="m 4969,3521 -2,61 -19,48 -10,22 c -6,18 -2,20 -2,34 l 1,34 9,1 5,-27 1,-25 c 0,21 2,30 2,57 l 1,17 c 6,22 13,27 13,6 l 3,-56 1,69 c 1,20 4,27 12,3 l 0,-61 3,61 c 1,24 8,18 13,6 l -5,-54 c 5,10 6,42 15,30 l -6,-35 2,-24 1,-61 12,-89 -50,-17 z"
             id="path91"
             inkscape:connector-curvature="0"
             style="fill:#8f5444;stroke:#1f1a17;stroke-width:3.24643326" /><path
             class="fil9"
             d="m 5292,2596 c 70,0 107,69 107,164 0,96 -37,181 -107,181 -71,0 -111,-81 -111,-176 0,-96 40,-169 111,-169 z"
             id="path93"
             inkscape:connector-curvature="0"
             style="fill:#8f5444" /><path
             class="fil9"
             d="m 5220,2902 -26,70 175,12 -21,-76 -128,-6 z"
             id="path95"
             inkscape:connector-curvature="0"
             style="fill:#8f5444" /><path
             class="fil3 str0"
             d="m 5217,4462 16,109 -46,15 -15,-31 -42,43 -83,20 -55,-13 -5,-41 48,-19 54,-20 11,-88 117,25 z"
             id="path97"
             inkscape:connector-curvature="0"
             style="fill:#0a0b0c;stroke:#1f1a17;stroke-width:3.24643326" /><path
             class="fil3 str0"
             d="m 5380,4481 -16,109 46,15 15,-31 42,43 83,20 56,-13 5,-41 -49,-19 -54,-20 -11,-88 -117,25 z"
             id="path99"
             inkscape:connector-curvature="0"
             style="fill:#0a0b0c;stroke:#1f1a17;stroke-width:3.24643326" /><g
             id="g101"><path
               class="fil4 str0"
               d="m 5204,2937 81,22 -4,40 -82,-23 5,-39 z"
               id="path103"
               inkscape:connector-curvature="0"
               style="fill:#ffffff;stroke:#1f1a17;stroke-width:3.24643326" /><path
               class="fil4 str0"
               d="m 5286,2961 82,-23 4,40 -81,23 -5,-40 z"
               id="path105"
               inkscape:connector-curvature="0"
               style="fill:#ffffff;stroke:#1f1a17;stroke-width:3.24643326" /></g><g
             id="g107"><path
               class="fil10 str0"
               d="m 5260,2976 8,45 36,0 6,-45 -50,0 z"
               id="path109"
               inkscape:connector-curvature="0"
               style="fill:#db214c;stroke:#1f1a17;stroke-width:3.24643326" /><path
               class="fil10 str0"
               d="m 5268,3024 -5,501 23,60 29,-60 -16,-508 -31,7 z"
               id="path111"
               inkscape:connector-curvature="0"
               style="fill:#db214c;stroke:#1f1a17;stroke-width:3.24643326" /></g><path
             class="fil5 str0"
             d="m 5094,3543 -5,265 -2,188 -11,226 3,274 156,30 40,-666 96,671 131,0 -39,-911 -369,-77 z"
             id="path113"
             inkscape:connector-curvature="0"
             style="fill:#3c746b;stroke:#1f1a17;stroke-width:3.24643326" /><path
             class="fil5 str0"
             d="m 5075,3395 7,198 211,74 -49,-613 -41,-103 c -33,-7 -65,-11 -98,4 -21,13 -81,137 -121,350 l -31,243 79,8 26,-198 35,-172 -18,209 z"
             id="path115"
             inkscape:connector-curvature="0"
             style="fill:#3c746b;stroke:#1f1a17;stroke-width:3.24643326" /><path
             class="fil5 str0"
             d="m 5316,3675 33,-588 21,-128 c 16,0 41,2 56,1 l 44,26 c 33,43 53,222 83,348 l 73,136 -56,94 -34,-45 -55,-91 -9,227 -156,20 z"
             id="path117"
             inkscape:connector-curvature="0"
             style="fill:#3c746b;stroke:#1f1a17;stroke-width:3.24643326" /><path
             class="fil7 str0"
             d="m 5484,3424 -45,-205"
             id="path119"
             inkscape:connector-curvature="0"
             style="fill:none;stroke:#1f1a17;stroke-width:3.24643326" /><path
             class="fil7 str0"
             d="m 5371,2988 19,111 13,95 -40,271 -31,194"
             id="path121"
             inkscape:connector-curvature="0"
             style="fill:none;stroke:#1f1a17;stroke-width:3.24643326" /><path
             class="fil7 str0"
             d="m 5183,2959 26,95 -5,78 78,510"
             id="path123"
             inkscape:connector-curvature="0"
             style="fill:none;stroke:#1f1a17;stroke-width:3.24643326" /><path
             class="fil3 str0"
             d="m 5186,2817 -24,-86 7,-60 38,-86 c 45,-19 82,-19 122,-19 l 64,77 12,94 -13,74 -8,-94 -17,-54 -77,-10 -69,20 -29,29 -6,115 z"
             id="path125"
             inkscape:connector-curvature="0"
             style="fill:#0a0b0c;stroke:#1f1a17;stroke-width:3.24643326" /><path
             class="fil7 str0"
             d="m 5255,2861 30,6 30,-2 13,-15 -25,-4 -11,2 -11,0 -26,13 z"
             id="path127"
             inkscape:connector-curvature="0"
             style="fill:none;stroke:#1f1a17;stroke-width:3.24643326" /><path
             class="fil7 str0"
             d="m 5272,2813 12,-8 10,2 13,6"
             id="path129"
             inkscape:connector-curvature="0"
             style="fill:none;stroke:#1f1a17;stroke-width:3.24643326" /><g
             id="g131"><path
               class="fil4 str0"
               d="m 5251,2725 c 10,1 17,7 16,14 -1,7 -10,11 -21,10 -10,-1 -17,-7 -16,-13 1,-7 11,-12 21,-11 z"
               id="path133"
               inkscape:connector-curvature="0"
               style="fill:#ffffff;stroke:#1f1a17;stroke-width:3.24643326" /><path
               class="fil8 str0"
               d="m 5253,2734 c 3,0 5,3 5,6 -1,3 -4,6 -7,6 -2,-1 -4,-3 -4,-7 1,-3 4,-6 6,-5 z"
               id="path135"
               inkscape:connector-curvature="0"
               style="fill:#1f1a17;stroke:#1f1a17;stroke-width:3.24643326" /></g><g
             id="g137"><path
               class="fil4 str0"
               d="m 5317,2721 c -10,0 -18,6 -17,13 0,6 9,12 19,12 10,0 18,-6 17,-12 0,-7 -9,-13 -19,-13 z"
               id="path139"
               inkscape:connector-curvature="0"
               style="fill:#ffffff;stroke:#1f1a17;stroke-width:3.24643326" /><path
               class="fil8 str0"
               d="m 5313,2729 c -2,0 -5,3 -4,7 0,3 3,6 5,6 3,0 6,-3 5,-6 0,-4 -3,-7 -6,-7 z"
               id="path141"
               inkscape:connector-curvature="0"
               style="fill:#1f1a17;stroke:#1f1a17;stroke-width:3.24643326" /></g><path
             class="fil8 str0"
             d="m 5260,2711 -15,-6 -26,3 18,5 18,5 5,-7 z"
             id="path143"
             inkscape:connector-curvature="0"
             style="fill:#1f1a17;stroke:#1f1a17;stroke-width:3.24643326" /><path
             class="fil8 str0"
             d="m 5306,2625 -16,2 -21,16 19,-5 17,-5 1,-8 z"
             id="path145"
             inkscape:connector-curvature="0"
             style="fill:#1f1a17;stroke:#1f1a17;stroke-width:3.24643326" /><path
             class="fil8 str0"
             d="m 5313,2708 16,-7 26,3 -19,6 -18,4 -5,-6 z"
             id="path147"
             inkscape:connector-curvature="0"
             style="fill:#1f1a17;stroke:#1f1a17;stroke-width:3.24643326" /></g><g
           id="g149"><path
             class="fil11 str0"
             d="m 6368,3889 30,37 2,36 -1,17 c 1,14 6,22 4,34 l 13,29 17,-10 -4,-21 -3,-27 c 11,13 20,17 34,33 l 0,22 c 9,22 28,16 23,-2 l -18,-47 31,43 c 3,31 15,37 22,0 l -31,-42 38,34 c 14,15 19,8 19,-1 l -35,-30 c 12,3 30,22 35,11 l -26,-18 -10,-15 -34,-36 -32,-58 -74,11 z"
             id="path151"
             inkscape:connector-curvature="0"
             style="fill:#f5c491;stroke:#1f1a17;stroke-width:3.24643326" /><path
             class="fil11 str0"
             d="m 5783,3940 -2,61 -19,47 -10,22 c -6,18 -2,21 -2,35 l 1,34 9,0 5,-27 1,-24 c -1,21 2,30 2,57 l 1,17 c 6,22 13,27 13,6 l 3,-56 1,69 c 1,20 4,27 12,2 l 0,-60 3,60 c 1,25 8,18 13,6 l -5,-54 c 5,10 6,43 15,30 l -6,-34 2,-24 1,-62 12,-88 -50,-17 z"
             id="path153"
             inkscape:connector-curvature="0"
             style="fill:#f5c491;stroke:#1f1a17;stroke-width:3.24643326" /><path
             class="fil11"
             d="m 6106,3015 c 70,0 107,69 107,164 0,95 -37,181 -107,181 -71,0 -111,-81 -111,-177 0,-95 40,-168 111,-168 z"
             id="path155"
             inkscape:connector-curvature="0"
             style="fill:#f5c491" /><path
             class="fil11"
             d="m 6034,3321 -26,69 175,13 -21,-76 -128,-6 z"
             id="path157"
             inkscape:connector-curvature="0"
             style="fill:#f5c491" /><path
             class="fil3 str0"
             d="m 6031,4881 16,109 -46,15 -15,-31 -42,43 -83,19 -56,-13 -4,-40 48,-19 54,-20 11,-88 117,25 z"
             id="path159"
             inkscape:connector-curvature="0"
             style="fill:#0a0b0c;stroke:#1f1a17;stroke-width:3.24643326" /><path
             class="fil3 str0"
             d="m 6194,4900 -16,109 46,15 15,-31 42,43 83,19 56,-13 5,-40 -49,-19 -54,-20 -11,-88 -117,25 z"
             id="path161"
             inkscape:connector-curvature="0"
             style="fill:#0a0b0c;stroke:#1f1a17;stroke-width:3.24643326" /><path
             class="fil4 str0"
             d="m 5919,3829 -5,183 193,74 -10,-664 -80,-52 c -33,-7 -65,-11 -98,4 -21,13 -82,137 -121,350 l -31,242 79,9 26,-198 35,-173 12,225 z"
             id="path163"
             inkscape:connector-curvature="0"
             style="fill:#ffffff;stroke:#1f1a17;stroke-width:3.24643326" /><path
             class="fil4 str0"
             d="m 6102,4078 -2,-651 80,-61 c 16,0 41,2 56,1 l 58,2 c 34,44 60,134 81,236 l 61,271 -47,69 -119,-335 9,181 -3,265 -174,22 z"
             id="path165"
             inkscape:connector-curvature="0"
             style="fill:#ffffff;stroke:#1f1a17;stroke-width:3.24643326" /><path
             class="fil7 str0"
             d="m 6274,3802 -21,-165"
             id="path167"
             inkscape:connector-curvature="0"
             style="fill:none;stroke:#1f1a17;stroke-width:3.24643326" /><path
             class="fil9 str0"
             d="m 6000,3236 c -23,-24 -16,-57 -24,-86 l 1,-69 c 14,-35 30,-52 51,-70 43,-21 81,-36 117,-8 39,19 56,29 71,58 l 12,92 c -1,25 -1,60 -22,77 l -8,-95 -17,-53 c -26,-1 -69,-8 -80,-28 -14,29 -44,24 -66,38 l -29,29 -6,115 z"
             id="path169"
             inkscape:connector-curvature="0"
             style="fill:#8f5444;stroke:#1f1a17;stroke-width:3.24643326" /><path
             class="fil7 str0"
             d="m 6069,3279 30,7 30,-2 13,-15 -25,-4 -11,2 -11,0 -26,12 z"
             id="path171"
             inkscape:connector-curvature="0"
             style="fill:none;stroke:#1f1a17;stroke-width:3.24643326" /><path
             class="fil7 str0"
             d="m 6086,3232 12,-8 10,2 13,6"
             id="path173"
             inkscape:connector-curvature="0"
             style="fill:none;stroke:#1f1a17;stroke-width:3.24643326" /><g
             id="g175"><path
               class="fil4 str0"
               d="m 6065,3144 c 10,1 17,7 16,14 -1,6 -10,11 -21,10 -10,-1 -17,-7 -16,-14 1,-6 10,-11 21,-10 z"
               id="path177"
               inkscape:connector-curvature="0"
               style="fill:#ffffff;stroke:#1f1a17;stroke-width:3.24643326" /><path
               class="fil8 str0"
               d="m 6067,3152 c 3,1 5,3 5,7 -1,3 -4,6 -7,5 -3,0 -4,-3 -4,-6 1,-3 4,-6 6,-6 z"
               id="path179"
               inkscape:connector-curvature="0"
               style="fill:#1f1a17;stroke:#1f1a17;stroke-width:3.24643326" /></g><g
             id="g181"><path
               class="fil4 str0"
               d="m 6131,3140 c -10,0 -18,6 -17,12 0,7 9,13 19,13 10,0 18,-6 17,-13 0,-6 -9,-12 -19,-12 z"
               id="path183"
               inkscape:connector-curvature="0"
               style="fill:#ffffff;stroke:#1f1a17;stroke-width:3.24643326" /><path
               class="fil8 str0"
               d="m 6127,3148 c -2,0 -5,3 -4,6 0,4 3,6 5,6 3,0 5,-2 5,-6 0,-3 -3,-6 -6,-6 z"
               id="path185"
               inkscape:connector-curvature="0"
               style="fill:#1f1a17;stroke:#1f1a17;stroke-width:3.24643326" /></g><path
             class="fil8 str0"
             d="m 6074,3130 -15,-7 -26,3 18,6 18,5 5,-7 z"
             id="path187"
             inkscape:connector-curvature="0"
             style="fill:#1f1a17;stroke:#1f1a17;stroke-width:3.24643326" /><path
             class="fil8 str0"
             d="m 6127,3127 16,-7 26,3 -19,6 -18,4 -5,-6 z"
             id="path189"
             inkscape:connector-curvature="0"
             style="fill:#1f1a17;stroke:#1f1a17;stroke-width:3.24643326" /><path
             class="fil7 str0"
             d="m 6124,3405 0,247 3,154 0,184 0,87"
             id="path191"
             inkscape:connector-curvature="0"
             style="fill:none;stroke:#1f1a17;stroke-width:3.24643326" /><circle
             class="fil12 str0"
             cx="6114"
             cy="3475"
             r="10"
             id="circle193"
             style="fill:#fffb9c;stroke:#1f1a17;stroke-width:3.24643326" /><circle
             class="fil12 str0"
             cx="6421"
             cy="3868"
             r="10"
             id="circle195"
             style="fill:#fffb9c;stroke:#1f1a17;stroke-width:3.24643326" /><circle
             class="fil12 str0"
             cx="6111"
             cy="3619"
             r="10"
             id="circle197"
             style="fill:#fffb9c;stroke:#1f1a17;stroke-width:3.24643326" /><circle
             class="fil12 str0"
             cx="6114"
             cy="3729"
             r="10"
             id="circle199"
             style="fill:#fffb9c;stroke:#1f1a17;stroke-width:3.24643326" /><circle
             class="fil12 str0"
             cx="6108"
             cy="3852"
             r="10"
             id="circle201"
             style="fill:#fffb9c;stroke:#1f1a17;stroke-width:3.24643326" /><circle
             class="fil3 str0"
             cx="6105"
             cy="3959"
             r="10"
             id="circle203"
             style="fill:#0a0b0c;stroke:#1f1a17;stroke-width:3.24643326" /><path
             class="fil13 str0"
             d="m 5908,3962 -5,265 -2,188 -11,226 3,274 156,30 40,-666 96,671 131,0 -39,-967 -369,-21 z"
             id="path205"
             inkscape:connector-curvature="0"
             style="fill:#282376;stroke:#1f1a17;stroke-width:3.24643326" /><rect
             class="fil3 str0"
             x="5906"
             y="3951"
             width="375"
             height="29"
             id="rect207"
             style="fill:#0a0b0c;stroke:#1f1a17;stroke-width:3.24643326" /><rect
             class="fil14 str0"
             x="6083"
             y="3948"
             width="38"
             height="38"
             id="rect209"
             style="fill:#936b6e;stroke:#1f1a17;stroke-width:3.24643326" /><path
             class="fil4 str0"
             d="m 5764,3930 88,7 -4,39 -88,-8 4,-38 z"
             id="path211"
             inkscape:connector-curvature="0"
             style="fill:#ffffff;stroke:#1f1a17;stroke-width:3.24643326" /><path
             class="fil4 str0"
             d="m 6375,3907 57,-65 18,50 -62,61 -13,-46 z"
             id="path213"
             inkscape:connector-curvature="0"
             style="fill:#ffffff;stroke:#1f1a17;stroke-width:3.24643326" /><path
             class="fil4 str0"
             d="m 6100,3380 70,-38 11,27 -66,81 -15,-70 z"
             id="path215"
             inkscape:connector-curvature="0"
             style="fill:#ffffff;stroke:#1f1a17;stroke-width:3.24643326" /><path
             class="fil4 str0"
             d="m 6021,3341 78,37 -9,72 -72,-77 3,-32 z"
             id="path217"
             inkscape:connector-curvature="0"
             style="fill:#ffffff;stroke:#1f1a17;stroke-width:3.24643326" /><circle
             class="fil12 str0"
             cx="5836"
             cy="3955"
             r="10"
             id="circle219"
             style="fill:#fffb9c;stroke:#1f1a17;stroke-width:3.24643326" /><circle
             class="fil12 str0"
             cx="6424"
             cy="3890"
             r="10"
             id="circle221"
             style="fill:#fffb9c;stroke:#1f1a17;stroke-width:3.24643326" /><path
             class="fil9 str0"
             d="m 6056,3279 30,-17 20,-8 28,6 28,18 -10,-24 -43,-20 -12,1 -32,22 -9,22 z"
             id="path223"
             inkscape:connector-curvature="0"
             style="fill:#8f5444;stroke:#1f1a17;stroke-width:3.24643326" /></g><circle
           class="fil7 str1"
           cx="6253"
           cy="3247"
           r="460"
           id="circle225"
           style="fill:none;stroke:#4d485b;stroke-width:120.11802673" /><g
           id="g227"><path
             class="fil8 str0"
             d="m 6696,3315 664,276 -90,218 -665,-276 91,-218 z"
             id="path229"
             inkscape:connector-curvature="0"
             style="fill:#1f1a17;stroke:#1f1a17;stroke-width:3.24643326" /><path
             class="fil15 str0"
             d="m 7131,3496 120,50 -90,218 -120,-50 90,-218 z"
             id="path231"
             inkscape:connector-curvature="0"
             style="fill:url(#id0);stroke:#1f1a17;stroke-width:3.24643326" /></g></g><path
         class="fil16"
         d="m 1034,783 c 0,22 -6,40 -20,53 -13,12 -31,19 -54,19 l -116,0 0,-382 116,0 c 23,0 41,6 54,19 14,13 20,31 20,53 l 0,238 z m -57,-10 0,-219 c 0,-22 -11,-32 -34,-32 l -42,0 0,284 41,0 c 23,0 35,-11 35,-33 z"
         id="path233"
         inkscape:connector-curvature="0"
         style="fill:#0065a8" /><path
         class="fil16"
         d="m 1132,573 -56,0 0,-58 56,0 0,58 z m 0,282 -55,0 0,-247 55,0 0,247 z"
         id="path235"
         inkscape:connector-curvature="0"
         style="fill:#0065a8" /><path
         class="fil16"
         d="m 1337,914 c 0,21 -11,31 -32,31 l -97,0 c -21,0 -31,-10 -31,-31 l 0,-39 54,0 0,29 50,0 0,-51 -57,0 c -16,0 -28,-4 -37,-13 -9,-9 -14,-21 -14,-36 l 0,-151 c 0,-14 4,-26 12,-34 8,-8 19,-12 33,-12 7,0 28,3 63,10 l 0,-9 56,0 0,306 z m -56,-106 0,-151 c -18,-2 -30,-3 -35,-3 -12,0 -18,6 -18,18 l 0,118 c 0,12 7,18 19,18 l 34,0 z"
         id="path237"
         inkscape:connector-curvature="0"
         style="fill:#0065a8" /><path
         class="fil16"
         d="m 1434,573 -56,0 0,-58 56,0 0,58 z m 0,282 -55,0 0,-247 55,0 0,247 z"
         id="path239"
         inkscape:connector-curvature="0"
         style="fill:#0065a8" /><path
         class="fil16"
         d="m 1582,855 -62,0 c -21,0 -31,-10 -31,-31 l 0,-168 -27,0 0,-48 27,0 0,-67 55,0 0,67 36,0 0,48 -36,0 0,151 38,0 0,48 z"
         id="path241"
         inkscape:connector-curvature="0"
         style="fill:#0065a8" /><path
         class="fil16"
         d="m 1772,855 -54,0 0,-9 c -12,2 -25,4 -38,6 -16,2 -29,4 -38,4 -20,0 -30,-10 -30,-30 l 0,-89 c 0,-21 10,-31 31,-31 l 76,0 0,-56 -54,0 0,35 -50,0 0,-46 c 0,-21 10,-31 31,-31 l 95,0 c 20,0 31,10 31,31 l 0,216 z m -53,-45 0,-66 -54,0 0,68 54,-2 z"
         id="path243"
         inkscape:connector-curvature="0"
         style="fill:#0065a8" /><path
         class="fil16"
         d="m 1868,855 -55,0 0,-382 55,0 0,382 z"
         id="path245"
         inkscape:connector-curvature="0"
         style="fill:#0065a8" /><path
         class="fil17"
         d="m 2071,855 -158,0 0,-382 157,0 0,50 -100,0 0,112 86,0 0,49 -86,0 0,120 101,0 0,51 z"
         id="path247"
         inkscape:connector-curvature="0"
         style="fill:#e77817" /><path
         class="fil17"
         d="m 2379,855 -55,0 0,-200 -53,1 0,199 -55,0 0,-200 -53,1 0,199 -56,0 0,-247 56,0 0,9 c 13,-2 26,-4 39,-6 16,-3 29,-4 39,-4 13,0 21,4 25,11 14,-2 28,-4 41,-6 18,-3 32,-5 42,-5 20,0 30,10 30,30 l 0,218 z"
         id="path249"
         inkscape:connector-curvature="0"
         style="fill:#e77817" /><path
         class="fil17"
         d="m 2584,805 c 0,20 -7,34 -22,42 -10,6 -26,9 -47,9 -5,0 -12,0 -21,-1 -9,0 -15,0 -19,0 l 0,90 -56,0 0,-337 56,0 0,9 c 13,-2 26,-4 39,-6 17,-3 30,-4 39,-4 21,0 31,10 31,30 l 0,168 z m -56,-15 0,-135 -53,1 0,152 35,0 c 12,0 18,-6 18,-18 z"
         id="path251"
         inkscape:connector-curvature="0"
         style="fill:#e77817" /><path
         class="fil17"
         d="m 2680,855 -55,0 0,-382 55,0 0,382 z"
         id="path253"
         inkscape:connector-curvature="0"
         style="fill:#e77817" /><path
         class="fil17"
         d="m 2881,824 c 0,21 -11,31 -32,31 l -96,0 c -21,0 -32,-10 -32,-31 l 0,-185 c 0,-21 11,-31 32,-31 l 96,0 c 21,0 32,10 32,31 l 0,90 -16,16 -90,0 0,69 52,0 0,-41 54,0 0,51 z m -54,-116 0,-59 -52,0 0,59 52,0 z"
         id="path255"
         inkscape:connector-curvature="0"
         style="fill:#e77817" /><path
         class="fil17"
         d="m 3084,824 c 0,21 -11,31 -31,31 l -100,0 c -21,0 -32,-10 -32,-31 l 0,-185 c 0,-21 11,-31 32,-31 l 100,0 c 20,0 31,10 31,31 l 0,185 z m -55,-16 0,-153 -53,0 0,153 53,0 z"
         id="path257"
         inkscape:connector-curvature="0"
         style="fill:#e77817" /><path
         class="fil17"
         d="m 3279,824 c 0,21 -10,31 -31,31 l -94,0 c -21,0 -31,-10 -31,-31 l 0,-53 54,0 0,42 49,0 0,-39 -86,-51 c -11,-7 -17,-16 -17,-27 l 0,-57 c 0,-21 11,-31 32,-31 l 93,0 c 20,0 31,10 31,31 l 0,49 -53,0 0,-38 -49,0 0,36 85,50 c 11,6 17,15 17,27 l 0,61 z"
         id="path259"
         inkscape:connector-curvature="0"
         style="fill:#e77817" /><path
         class="fil17"
         d="m 3372,855 -55,0 0,-59 55,0 0,59 z"
         id="path261"
         inkscape:connector-curvature="0"
         style="fill:#e77817" /><path
         class="fil17"
         d="m 3570,824 c 0,21 -11,31 -31,31 l -97,0 c -21,0 -32,-10 -32,-31 l 0,-185 c 0,-21 11,-31 32,-31 l 97,0 c 20,0 31,10 31,31 l 0,58 -55,0 0,-42 -50,0 0,153 50,0 0,-47 55,0 0,63 z"
         id="path263"
         inkscape:connector-curvature="0"
         style="fill:#e77817" /><path
         class="fil17"
         d="m 3772,824 c 0,21 -10,31 -31,31 l -100,0 c -21,0 -31,-10 -31,-31 l 0,-185 c 0,-21 10,-31 31,-31 l 100,0 c 21,0 31,10 31,31 l 0,185 z m -54,-16 0,-153 -53,0 0,153 53,0 z"
         id="path265"
         inkscape:connector-curvature="0"
         style="fill:#e77817" /><path
         class="fil17"
         d="m 4085,855 -56,0 0,-200 -52,1 0,199 -56,0 0,-200 -53,1 0,199 -55,0 0,-247 55,0 0,9 c 13,-2 26,-4 39,-6 16,-3 29,-4 40,-4 12,0 21,4 24,11 14,-2 28,-4 42,-6 18,-3 31,-5 41,-5 20,0 31,10 31,30 l 0,218 z"
         id="path267"
         inkscape:connector-curvature="0"
         style="fill:#e77817" /><path
         class="fil4"
         d="m 868,1262 0,-206 152,0 0,35 -111,0 0,45 103,0 0,35 -103,0 0,56 115,0 0,35 -156,0 z"
         id="path269"
         inkscape:connector-curvature="0"
         style="fill:#ffffff" /><path
         class="fil4"
         d="m 1045,1219 40,-6 c 1,8 5,14 10,18 5,4 12,6 22,6 10,0 17,-2 23,-6 3,-3 5,-6 5,-11 0,-3 -1,-5 -3,-7 -2,-2 -6,-4 -13,-5 -32,-7 -52,-14 -61,-19 -11,-8 -17,-20 -17,-34 0,-13 5,-24 15,-33 10,-8 26,-13 47,-13 21,0 36,4 46,10 10,7 17,17 20,30 l -37,7 c -1,-6 -4,-11 -9,-14 -4,-3 -11,-4 -19,-4 -10,0 -18,1 -22,4 -3,2 -5,5 -5,8 0,3 2,5 4,7 4,3 16,6 37,11 21,5 36,11 44,18 8,7 12,17 12,29 0,14 -5,26 -17,35 -11,10 -28,15 -50,15 -21,0 -37,-4 -49,-12 -11,-8 -19,-20 -23,-34 z"
         id="path271"
         inkscape:connector-curvature="0"
         style="fill:#ffffff" /><path
         class="fil4"
         d="m 1299,1262 0,-206 88,0 c 22,0 38,2 48,6 9,3 17,10 23,19 6,10 9,20 9,33 0,15 -4,28 -13,38 -9,10 -23,16 -41,19 9,5 17,11 22,17 6,6 14,18 24,34 l 25,40 -50,0 -30,-45 c -10,-16 -18,-26 -21,-30 -4,-4 -9,-7 -13,-9 -4,-1 -11,-2 -21,-2 l -8,0 0,86 -42,0 z m 42,-119 30,0 c 20,0 33,-1 38,-3 5,-1 9,-4 11,-8 3,-4 5,-10 5,-16 0,-7 -2,-12 -6,-16 -4,-5 -9,-7 -16,-9 -3,0 -13,0 -30,0 l -32,0 0,52 z"
         id="path273"
         inkscape:connector-curvature="0"
         style="fill:#ffffff" /><path
         class="fil4"
         d="m 1593,1214 39,7 c -5,14 -13,25 -24,33 -11,7 -25,11 -41,11 -26,0 -45,-8 -57,-25 -10,-14 -15,-31 -15,-52 0,-24 6,-44 19,-58 13,-14 29,-21 49,-21 22,0 40,8 53,22 12,15 19,37 18,68 l -99,0 c 1,11 4,20 10,27 6,6 13,10 23,10 6,0 11,-2 15,-5 4,-4 8,-9 10,-17 z m 2,-40 c 0,-11 -3,-20 -9,-26 -6,-6 -12,-9 -20,-9 -9,0 -16,4 -22,10 -5,6 -8,15 -8,25 l 59,0 z"
         id="path275"
         inkscape:connector-curvature="0"
         style="fill:#ffffff" /><path
         class="fil4"
         d="m 1796,1157 -39,7 c -1,-8 -4,-14 -9,-18 -4,-4 -10,-6 -18,-6 -10,0 -17,4 -23,10 -6,7 -9,19 -9,35 0,17 3,30 9,37 6,7 14,11 24,11 7,0 13,-2 18,-6 5,-5 8,-12 10,-22 l 39,6 c -4,18 -12,31 -23,40 -11,10 -27,14 -46,14 -22,0 -39,-7 -52,-21 -13,-13 -20,-32 -20,-57 0,-24 7,-43 20,-57 13,-14 31,-21 53,-21 18,0 32,4 43,12 11,8 18,20 23,36 z"
         id="path277"
         inkscape:connector-curvature="0"
         style="fill:#ffffff" /><path
         class="fil4"
         d="m 1826,1262 0,-206 39,0 0,206 -39,0 z"
         id="path279"
         inkscape:connector-curvature="0"
         style="fill:#ffffff" /><path
         class="fil4"
         d="m 2004,1262 0,-23 c -5,8 -13,15 -21,19 -9,5 -19,7 -28,7 -10,0 -19,-2 -27,-6 -8,-5 -14,-11 -18,-19 -3,-8 -5,-19 -5,-33 l 0,-94 39,0 0,68 c 0,21 1,34 3,39 1,4 4,8 8,11 3,3 8,4 14,4 7,0 13,-2 18,-5 6,-4 9,-9 11,-14 2,-6 3,-19 3,-40 l 0,-63 40,0 0,149 -37,0 z"
         id="path281"
         inkscape:connector-curvature="0"
         style="fill:#ffffff" /><path
         class="fil4"
         d="m 2150,1113 0,31 -27,0 0,60 c 0,12 0,19 1,21 0,2 1,4 3,5 2,2 4,2 7,2 4,0 9,-1 16,-3 l 3,30 c -9,4 -19,6 -31,6 -7,0 -14,-1 -19,-3 -6,-3 -10,-6 -13,-10 -3,-4 -4,-9 -5,-15 -1,-5 -2,-14 -2,-28 l 0,-65 -18,0 0,-31 18,0 0,-30 40,-23 0,53 27,0 z"
         id="path283"
         inkscape:connector-curvature="0"
         style="fill:#ffffff" /><path
         class="fil4"
         d="m 2199,1158 -36,-6 c 4,-15 11,-25 21,-32 10,-7 24,-11 43,-11 18,0 31,2 40,7 8,4 14,9 18,15 3,7 5,19 5,36 l 0,46 c 0,13 0,23 2,29 1,6 3,13 7,20 l -39,0 c -1,-3 -3,-7 -4,-12 -1,-2 -1,-4 -1,-5 -7,7 -14,12 -22,15 -8,3 -16,5 -25,5 -15,0 -27,-4 -36,-12 -9,-9 -13,-19 -13,-32 0,-8 2,-16 6,-23 4,-6 10,-11 17,-15 7,-3 17,-6 31,-9 19,-3 31,-7 38,-10 l 0,-3 c 0,-8 -1,-13 -5,-17 -4,-3 -11,-5 -21,-5 -7,0 -13,2 -17,5 -4,2 -7,7 -9,14 z m 52,32 c -5,2 -13,4 -24,6 -10,3 -18,5 -21,7 -5,4 -8,8 -8,14 0,5 2,10 6,14 5,4 10,6 16,6 7,0 14,-2 21,-7 4,-3 7,-8 9,-13 1,-3 1,-10 1,-19 l 0,-8 z"
         id="path285"
         inkscape:connector-curvature="0"
         style="fill:#ffffff" /><path
         class="fil4"
         d="m 2326,1113 36,0 0,20 c 13,-16 29,-24 47,-24 9,0 18,2 25,6 7,4 13,10 17,18 7,-8 14,-14 21,-18 8,-4 16,-6 25,-6 10,0 20,3 27,7 8,4 14,11 17,20 3,6 4,16 4,30 l 0,96 -39,0 0,-85 c 0,-15 -1,-25 -4,-29 -4,-6 -9,-9 -17,-9 -6,0 -11,2 -16,6 -4,3 -8,8 -10,14 -2,7 -3,17 -3,31 l 0,72 -40,0 0,-82 c 0,-14 0,-24 -2,-28 -1,-4 -3,-7 -6,-9 -3,-2 -7,-4 -12,-4 -7,0 -12,2 -17,5 -5,4 -8,8 -10,15 -2,6 -3,16 -3,30 l 0,73 -40,0 0,-149 z"
         id="path287"
         inkscape:connector-curvature="0"
         style="fill:#ffffff" /><path
         class="fil4"
         d="m 2585,1092 0,-36 39,0 0,36 -39,0 z m 0,170 0,-149 39,0 0,149 -39,0 z"
         id="path289"
         inkscape:connector-curvature="0"
         style="fill:#ffffff" /><path
         class="fil4"
         d="m 2751,1214 39,7 c -5,14 -13,25 -24,33 -11,7 -24,11 -41,11 -26,0 -45,-8 -57,-25 -10,-14 -15,-31 -15,-52 0,-24 6,-44 19,-58 13,-14 30,-21 49,-21 23,0 40,8 53,22 13,15 19,37 18,68 l -99,0 c 1,11 4,20 10,27 6,6 14,10 23,10 6,0 11,-2 15,-5 4,-4 8,-9 10,-17 z m 2,-40 c 0,-11 -3,-20 -9,-26 -5,-6 -12,-9 -20,-9 -9,0 -16,4 -22,10 -5,6 -8,15 -8,25 l 59,0 z"
         id="path291"
         inkscape:connector-curvature="0"
         style="fill:#ffffff" /><path
         class="fil4"
         d="m 2960,1262 -39,0 0,-76 c 0,-16 -1,-27 -3,-32 -2,-4 -4,-8 -8,-11 -4,-2 -9,-4 -14,-4 -7,0 -13,2 -18,6 -6,4 -9,9 -11,15 -2,6 -3,18 -3,34 l 0,68 -40,0 0,-149 37,0 0,22 c 13,-17 29,-26 49,-26 9,0 17,2 24,5 7,3 12,7 16,12 4,5 6,10 8,17 1,6 2,15 2,26 l 0,93 z"
         id="path293"
         inkscape:connector-curvature="0"
         style="fill:#ffffff" /><path
         class="fil4"
         d="m 3068,1113 0,31 -27,0 0,60 c 0,12 1,19 1,21 1,2 2,4 4,5 1,2 4,2 6,2 4,0 9,-1 16,-3 l 4,30 c -10,4 -20,6 -32,6 -7,0 -13,-1 -19,-3 -6,-3 -10,-6 -12,-10 -3,-4 -5,-9 -6,-15 -1,-5 -1,-14 -1,-28 l 0,-65 -18,0 0,-31 18,0 0,-30 39,-23 0,53 27,0 z"
         id="path295"
         inkscape:connector-curvature="0"
         style="fill:#ffffff" /><path
         class="fil4"
         d="m 3087,1185 c 0,-13 3,-26 9,-38 7,-12 16,-22 28,-28 11,-6 25,-10 39,-10 23,0 41,8 56,22 14,15 21,33 21,56 0,22 -7,41 -21,56 -15,15 -33,22 -55,22 -14,0 -27,-3 -39,-9 -13,-6 -22,-15 -29,-27 -6,-12 -9,-27 -9,-44 z m 40,2 c 0,15 3,26 10,34 7,8 16,12 26,12 11,0 19,-4 26,-12 7,-8 11,-19 11,-34 0,-15 -4,-26 -11,-34 -7,-8 -15,-12 -26,-12 -10,0 -19,4 -26,12 -7,8 -10,19 -10,34 z"
         id="path297"
         inkscape:connector-curvature="0"
         style="fill:#ffffff" /><path
         class="fil4"
         d="m 3332,1113 42,0 36,106 35,-106 41,0 -53,143 -9,26 c -4,9 -7,15 -10,20 -3,5 -7,8 -11,11 -4,3 -9,5 -15,7 -6,1 -13,2 -20,2 -8,0 -15,-1 -23,-2 l -3,-31 c 6,1 12,2 17,2 9,0 16,-3 20,-8 4,-6 8,-13 10,-21 l -57,-149 z"
         id="path299"
         inkscape:connector-curvature="0"
         style="fill:#ffffff" /><path
         class="fil4"
         d="m 3581,1195 40,-4 c 2,13 7,23 15,30 7,6 17,9 30,9 13,0 23,-3 30,-8 7,-6 10,-13 10,-20 0,-5 -1,-9 -4,-12 -3,-4 -8,-7 -15,-9 -5,-2 -16,-5 -33,-9 -22,-6 -38,-13 -47,-21 -13,-11 -19,-25 -19,-41 0,-11 3,-20 9,-30 6,-9 14,-16 26,-20 11,-5 24,-8 40,-8 26,0 45,6 58,17 13,12 20,27 21,46 l -42,2 c -1,-11 -5,-19 -11,-23 -6,-5 -15,-7 -26,-7 -12,0 -22,2 -29,7 -4,3 -6,8 -6,13 0,5 2,9 6,13 5,4 18,9 38,13 20,5 35,10 45,15 10,5 17,12 23,21 5,9 8,20 8,33 0,12 -3,23 -10,33 -7,10 -16,18 -28,23 -12,5 -27,7 -45,7 -26,0 -46,-6 -59,-18 -14,-12 -23,-29 -25,-52 z"
         id="path301"
         inkscape:connector-curvature="0"
         style="fill:#ffffff" /><path
         class="fil4"
         d="m 3869,1214 39,7 c -5,14 -13,25 -24,33 -11,7 -24,11 -41,11 -26,0 -45,-8 -57,-25 -10,-14 -15,-31 -15,-52 0,-24 6,-44 19,-58 13,-14 30,-21 49,-21 23,0 40,8 53,22 13,15 19,37 18,68 l -99,0 c 1,11 4,20 10,27 6,6 14,10 23,10 6,0 11,-2 15,-5 5,-4 8,-9 10,-17 z m 2,-40 c 0,-11 -3,-20 -9,-26 -5,-6 -12,-9 -20,-9 -9,0 -16,4 -22,10 -5,6 -8,15 -8,25 l 59,0 z"
         id="path303"
         inkscape:connector-curvature="0"
         style="fill:#ffffff" /><path
         class="fil4"
         d="m 3942,1262 0,-206 40,0 0,206 -40,0 z"
         id="path305"
         inkscape:connector-curvature="0"
         style="fill:#ffffff" /><path
         class="fil4"
         d="m 4109,1214 39,7 c -5,14 -13,25 -24,33 -11,7 -25,11 -41,11 -26,0 -45,-8 -58,-25 -9,-14 -14,-31 -14,-52 0,-24 6,-44 19,-58 13,-14 29,-21 49,-21 22,0 40,8 53,22 12,15 19,37 18,68 l -99,0 c 0,11 4,20 10,27 6,6 13,10 22,10 7,0 12,-2 16,-5 4,-4 7,-9 10,-17 z m 2,-40 c 0,-11 -3,-20 -9,-26 -6,-6 -12,-9 -21,-9 -8,0 -15,4 -21,10 -5,6 -8,15 -8,25 l 59,0 z"
         id="path307"
         inkscape:connector-curvature="0"
         style="fill:#ffffff" /><path
         class="fil4"
         d="m 4312,1157 -39,7 c -1,-8 -4,-14 -9,-18 -4,-4 -10,-6 -18,-6 -10,0 -17,4 -23,10 -6,7 -9,19 -9,35 0,17 3,30 9,37 6,7 14,11 24,11 7,0 13,-2 18,-6 5,-5 8,-12 10,-22 l 39,6 c -4,18 -12,31 -23,40 -12,10 -27,14 -46,14 -22,0 -39,-7 -52,-21 -13,-13 -20,-32 -20,-57 0,-24 7,-43 20,-57 13,-14 31,-21 53,-21 18,0 32,4 43,12 11,8 18,20 23,36 z"
         id="path309"
         inkscape:connector-curvature="0"
         style="fill:#ffffff" /><path
         class="fil4"
         d="m 4472,1157 -39,7 c -1,-8 -4,-14 -9,-18 -4,-4 -10,-6 -18,-6 -10,0 -18,4 -23,10 -6,7 -9,19 -9,35 0,17 3,30 9,37 6,7 14,11 24,11 7,0 13,-2 18,-6 5,-5 8,-12 10,-22 l 39,6 c -4,18 -12,31 -23,40 -12,10 -27,14 -46,14 -22,0 -39,-7 -52,-21 -13,-13 -20,-32 -20,-57 0,-24 7,-43 20,-57 13,-14 30,-21 53,-21 18,0 32,4 43,12 11,8 18,20 23,36 z"
         id="path311"
         inkscape:connector-curvature="0"
         style="fill:#ffffff" /><path
         class="fil4"
         d="m 4502,1092 0,-36 39,0 0,36 -39,0 z m 0,170 0,-149 39,0 0,149 -39,0 z"
         id="path313"
         inkscape:connector-curvature="0"
         style="fill:#ffffff" /><path
         class="fil4"
         d="m 4573,1185 c 0,-13 3,-26 9,-38 7,-12 16,-22 28,-28 12,-6 25,-10 39,-10 23,0 41,8 56,22 14,15 21,33 21,56 0,22 -7,41 -21,56 -15,15 -33,22 -55,22 -14,0 -27,-3 -39,-9 -13,-6 -22,-15 -29,-27 -6,-12 -9,-27 -9,-44 z m 40,2 c 0,15 3,26 11,34 7,8 15,12 26,12 10,0 18,-4 25,-12 7,-8 11,-19 11,-34 0,-15 -4,-26 -11,-34 -7,-8 -15,-12 -25,-12 -11,0 -19,4 -26,12 -8,8 -11,19 -11,34 z m 56,-93 -25,0 -38,-42 44,0 19,42 z"
         id="path315"
         inkscape:connector-curvature="0"
         style="fill:#ffffff" /><path
         class="fil4"
         d="m 4893,1262 -40,0 0,-76 c 0,-16 0,-27 -2,-32 -2,-4 -5,-8 -8,-11 -4,-2 -9,-4 -14,-4 -7,0 -13,2 -18,6 -6,4 -10,9 -12,15 -2,6 -3,18 -3,34 l 0,68 -39,0 0,-149 37,0 0,22 c 13,-17 29,-26 49,-26 8,0 16,2 24,5 7,3 12,7 16,12 4,5 6,10 8,17 1,6 2,15 2,26 l 0,93 z"
         id="path317"
         inkscape:connector-curvature="0"
         style="fill:#ffffff" /><path
         class="fil4"
         d="m 5149,1262 -36,0 0,-22 c -6,8 -13,15 -22,19 -8,4 -16,6 -25,6 -17,0 -32,-7 -44,-21 -12,-13 -18,-33 -18,-57 0,-26 6,-45 18,-58 12,-13 27,-20 45,-20 16,0 31,7 43,21 l 0,-74 39,0 0,206 z m -105,-78 c 0,16 2,27 7,35 6,10 15,15 26,15 9,0 17,-4 24,-12 6,-7 9,-19 9,-34 0,-17 -3,-30 -9,-37 -6,-8 -14,-12 -24,-12 -9,0 -17,4 -23,12 -7,7 -10,18 -10,33 z"
         id="path319"
         inkscape:connector-curvature="0"
         style="fill:#ffffff" /><path
         class="fil4"
         d="m 5275,1214 39,7 c -5,14 -13,25 -24,33 -11,7 -25,11 -41,11 -26,0 -45,-8 -57,-25 -10,-14 -15,-31 -15,-52 0,-24 6,-44 19,-58 13,-14 29,-21 49,-21 22,0 40,8 53,22 12,15 19,37 18,68 l -99,0 c 0,11 4,20 10,27 6,6 13,10 22,10 7,0 12,-2 16,-5 4,-4 7,-9 10,-17 z m 2,-40 c 0,-11 -3,-20 -9,-26 -6,-6 -12,-9 -20,-9 -9,0 -16,4 -22,10 -5,6 -8,15 -8,25 l 59,0 z"
         id="path321"
         inkscape:connector-curvature="0"
         style="fill:#ffffff" /><path
         class="fil4"
         d="m 5496,1113 0,31 -27,0 0,60 c 0,12 1,19 1,21 1,2 2,4 4,5 1,2 4,2 6,2 4,0 9,-1 16,-3 l 4,30 c -10,4 -20,6 -32,6 -7,0 -13,-1 -19,-3 -6,-3 -10,-6 -12,-10 -3,-4 -5,-9 -6,-15 -1,-5 -1,-14 -1,-28 l 0,-65 -18,0 0,-31 18,0 0,-30 39,-23 0,53 27,0 z"
         id="path323"
         inkscape:connector-curvature="0"
         style="fill:#ffffff" /><path
         class="fil4"
         d="m 5545,1158 -36,-6 c 4,-15 11,-25 21,-32 10,-7 25,-11 44,-11 18,0 31,2 39,7 9,4 15,9 18,15 4,7 6,19 6,36 l -1,46 c 0,13 1,23 2,29 1,6 4,13 7,20 l -39,0 c -1,-3 -2,-7 -4,-12 0,-2 -1,-4 -1,-5 -7,7 -14,12 -22,15 -7,3 -15,5 -24,5 -15,0 -28,-4 -36,-12 -9,-9 -14,-19 -14,-32 0,-8 2,-16 6,-23 4,-6 10,-11 17,-15 8,-3 18,-6 32,-9 18,-3 31,-7 38,-10 l 0,-3 c 0,-8 -2,-13 -6,-17 -3,-3 -10,-5 -21,-5 -7,0 -12,2 -16,5 -4,2 -7,7 -10,14 z m 53,32 c -5,2 -13,4 -24,6 -11,3 -18,5 -22,7 -5,4 -7,8 -7,14 0,5 2,10 6,14 4,4 9,6 16,6 7,0 14,-2 20,-7 5,-3 8,-8 9,-13 1,-3 2,-10 2,-19 l 0,-8 z"
         id="path325"
         inkscape:connector-curvature="0"
         style="fill:#ffffff" /><path
         class="fil4"
         d="m 5676,1262 0,-206 39,0 0,206 -39,0 z"
         id="path327"
         inkscape:connector-curvature="0"
         style="fill:#ffffff" /><path
         class="fil4"
         d="m 5842,1214 39,7 c -5,14 -13,25 -24,33 -11,7 -24,11 -41,11 -26,0 -45,-8 -57,-25 -10,-14 -15,-31 -15,-52 0,-24 6,-44 19,-58 13,-14 30,-21 49,-21 22,0 40,8 53,22 13,15 19,37 18,68 l -99,0 c 1,11 4,20 10,27 6,6 14,10 23,10 6,0 11,-2 15,-5 4,-4 8,-9 10,-17 z m 2,-40 c 0,-11 -3,-20 -9,-26 -5,-6 -12,-9 -20,-9 -9,0 -16,4 -22,10 -5,6 -8,15 -8,25 l 59,0 z"
         id="path329"
         inkscape:connector-curvature="0"
         style="fill:#ffffff" /><path
         class="fil4"
         d="m 6051,1262 -40,0 0,-76 c 0,-16 0,-27 -2,-32 -2,-4 -5,-8 -8,-11 -4,-2 -9,-4 -14,-4 -7,0 -13,2 -18,6 -6,4 -10,9 -12,15 -2,6 -3,18 -3,34 l 0,68 -39,0 0,-149 37,0 0,22 c 13,-17 29,-26 49,-26 8,0 16,2 24,5 7,3 12,7 16,12 4,5 6,10 8,17 1,6 2,15 2,26 l 0,93 z"
         id="path331"
         inkscape:connector-curvature="0"
         style="fill:#ffffff" /><path
         class="fil4"
         d="m 6159,1113 0,31 -27,0 0,60 c 0,12 1,19 1,21 1,2 2,4 4,5 1,2 4,2 6,2 4,0 9,-1 16,-3 l 3,30 c -9,4 -19,6 -31,6 -7,0 -13,-1 -19,-3 -6,-3 -10,-6 -12,-10 -3,-4 -5,-9 -6,-15 -1,-5 -1,-14 -1,-28 l 0,-65 -18,0 0,-31 18,0 0,-30 39,-23 0,53 27,0 z"
         id="path333"
         inkscape:connector-curvature="0"
         style="fill:#ffffff" /><path
         class="fil4"
         d="m 6177,1185 c 0,-13 4,-26 10,-38 7,-12 16,-22 28,-28 11,-6 25,-10 39,-10 23,0 41,8 56,22 14,15 21,33 21,56 0,22 -7,41 -22,56 -14,15 -32,22 -54,22 -14,0 -27,-3 -40,-9 -12,-6 -21,-15 -28,-27 -6,-12 -10,-27 -10,-44 z m 41,2 c 0,15 3,26 10,34 7,8 16,12 26,12 11,0 19,-4 26,-12 7,-8 11,-19 11,-34 0,-15 -4,-26 -11,-34 -7,-8 -15,-12 -26,-12 -10,0 -19,4 -26,12 -7,8 -10,19 -10,34 z"
         id="path335"
         inkscape:connector-curvature="0"
         style="fill:#ffffff" /><path
         class="fil4"
         d="m 6348,1219 40,-6 c 2,8 5,14 10,18 5,4 12,6 22,6 10,0 18,-2 23,-6 3,-3 5,-6 5,-11 0,-3 -1,-5 -3,-7 -2,-2 -6,-4 -13,-5 -32,-7 -52,-14 -61,-19 -11,-8 -17,-20 -17,-34 0,-13 5,-24 15,-33 10,-8 26,-13 47,-13 21,0 36,4 46,10 10,7 17,17 20,30 l -37,7 c -1,-6 -4,-11 -9,-14 -4,-3 -11,-4 -19,-4 -10,0 -18,1 -22,4 -3,2 -5,5 -5,8 0,3 2,5 4,7 4,3 16,6 37,11 21,5 36,11 44,18 8,7 13,17 13,29 0,14 -6,26 -18,35 -11,10 -28,15 -50,15 -21,0 -37,-4 -49,-12 -11,-8 -19,-20 -23,-34 z"
         id="path337"
         inkscape:connector-curvature="0"
         style="fill:#ffffff" /><path
         class="fil8"
         d="m 379,1923 29,8 c -6,23 -17,41 -33,54 -15,12 -34,18 -57,18 -24,0 -43,-5 -57,-14 -15,-10 -26,-24 -34,-42 -7,-18 -11,-37 -11,-58 0,-23 4,-42 13,-59 8,-17 21,-30 37,-39 16,-8 33,-13 52,-13 22,0 40,6 55,17 15,11 25,27 31,47 l -28,6 c -5,-15 -12,-27 -22,-34 -10,-7 -22,-11 -36,-11 -17,0 -31,4 -42,12 -11,8 -19,19 -24,32 -4,14 -7,28 -7,42 0,18 3,35 8,48 6,14 14,24 26,31 11,7 23,11 37,11 16,0 29,-5 40,-14 12,-10 19,-24 23,-42 z"
         id="path339"
         inkscape:connector-curvature="0"
         style="fill:#1f1a17" /><path
         class="fil8"
         d="m 543,1980 c -10,8 -20,14 -29,18 -9,3 -19,5 -29,5 -18,0 -31,-4 -40,-13 -9,-8 -14,-19 -14,-32 0,-8 2,-15 5,-21 4,-7 8,-12 14,-16 6,-3 12,-6 19,-8 5,-2 13,-3 24,-4 21,-3 37,-6 47,-10 1,-3 1,-5 1,-6 0,-11 -3,-19 -8,-23 -7,-7 -17,-9 -30,-9 -13,0 -22,2 -28,6 -6,4 -11,12 -13,23 l -26,-3 c 2,-11 6,-20 11,-27 6,-7 14,-12 24,-16 10,-4 22,-6 36,-6 13,0 24,2 32,5 9,3 15,7 19,12 4,5 7,11 8,18 1,5 1,13 1,25 l 0,35 c 0,25 1,41 2,48 1,6 4,12 7,18 l -28,0 c -3,-5 -5,-12 -5,-19 z m -3,-60 c -9,4 -24,8 -43,11 -11,1 -19,3 -23,5 -5,2 -8,5 -11,9 -2,3 -4,8 -4,12 0,7 3,13 8,18 6,5 14,7 24,7 10,0 20,-2 28,-7 8,-4 13,-10 17,-18 3,-6 4,-15 4,-27 l 0,-10 z"
         id="path341"
         inkscape:connector-curvature="0"
         style="fill:#1f1a17" /><path
         class="fil8"
         d="m 609,2060 0,-218 24,0 0,20 c 6,-8 12,-14 20,-18 7,-4 16,-6 26,-6 13,0 25,4 35,11 11,7 18,16 24,29 5,13 8,26 8,42 0,16 -3,30 -9,43 -6,13 -14,23 -25,30 -11,7 -23,10 -35,10 -9,0 -17,-2 -24,-6 -7,-3 -13,-8 -17,-14 l 0,77 -27,0 z m 24,-138 c 0,20 4,35 12,45 8,9 18,14 30,14 12,0 22,-5 31,-15 8,-10 12,-26 12,-47 0,-20 -4,-35 -12,-45 -8,-10 -18,-15 -30,-15 -11,0 -21,6 -30,16 -9,11 -13,26 -13,47 z"
         id="path343"
         inkscape:connector-curvature="0"
         style="fill:#1f1a17" /><path
         class="fil8"
         d="m 836,1976 4,23 c -8,2 -14,3 -20,3 -10,0 -18,-2 -23,-5 -5,-3 -9,-7 -11,-12 -2,-5 -3,-16 -3,-32 l 0,-90 -20,0 0,-21 20,0 0,-39 26,-16 0,55 27,0 0,21 -27,0 0,92 c 0,7 1,12 2,14 1,3 2,4 4,6 2,1 5,2 9,2 3,0 7,-1 12,-1 z"
         id="path345"
         inkscape:connector-curvature="0"
         style="fill:#1f1a17" /><path
         class="fil8"
         d="m 961,1980 c -10,8 -20,14 -29,18 -9,3 -19,5 -29,5 -18,0 -31,-4 -40,-13 -10,-8 -14,-19 -14,-32 0,-8 1,-15 5,-21 4,-7 8,-12 14,-16 6,-3 12,-6 19,-8 5,-2 13,-3 24,-4 21,-3 37,-6 47,-10 0,-3 0,-5 0,-6 0,-11 -2,-19 -7,-23 -7,-7 -17,-9 -30,-9 -13,0 -22,2 -28,6 -6,4 -11,12 -14,23 l -26,-3 c 3,-11 7,-20 12,-27 5,-7 13,-12 24,-16 10,-4 22,-6 35,-6 14,0 25,2 33,5 9,3 15,7 19,12 4,5 6,11 8,18 1,5 1,13 1,25 l 0,35 c 0,25 1,41 2,48 1,6 3,12 7,18 l -28,0 c -3,-5 -5,-12 -5,-19 z m -3,-60 c -9,4 -24,8 -43,11 -11,1 -19,3 -24,5 -4,2 -8,5 -10,9 -3,3 -4,8 -4,12 0,7 3,13 8,18 6,5 14,7 24,7 10,0 19,-2 27,-7 8,-4 14,-10 18,-18 3,-6 4,-15 4,-27 l 0,-10 z"
         id="path347"
         inkscape:connector-curvature="0"
         style="fill:#1f1a17" /><path
         class="fil8"
         d="m 1129,1942 27,3 c -3,18 -11,32 -22,43 -12,10 -27,15 -44,15 -21,0 -39,-7 -52,-21 -13,-14 -19,-34 -19,-61 0,-17 2,-32 8,-44 6,-13 14,-23 26,-29 11,-6 24,-10 37,-10 17,0 31,5 42,13 11,9 18,21 21,37 l -26,4 c -2,-10 -7,-18 -13,-24 -6,-5 -14,-8 -23,-8 -13,0 -24,5 -32,15 -9,9 -13,25 -13,46 0,21 4,36 12,46 8,9 19,14 32,14 10,0 19,-3 26,-10 7,-6 12,-16 13,-29 z"
         id="path349"
         inkscape:connector-curvature="0"
         style="fill:#1f1a17" /><path
         class="fil8"
         d="m 1179,1813 0,-31 26,0 0,31 -26,0 z m 0,186 0,-157 26,0 0,157 -26,0 z"
         id="path351"
         inkscape:connector-curvature="0"
         style="fill:#1f1a17" /><path
         class="fil8"
         d="m 1236,1921 c 0,-29 8,-51 24,-65 14,-12 30,-18 50,-18 22,0 39,7 53,22 14,14 21,33 21,58 0,21 -3,37 -10,48 -6,12 -14,21 -26,27 -12,7 -24,10 -38,10 -22,0 -40,-7 -54,-21 -13,-14 -20,-35 -20,-61 z m 27,0 c 0,20 5,35 14,45 8,10 20,15 33,15 13,0 24,-5 33,-15 9,-10 13,-26 13,-46 0,-20 -4,-34 -13,-44 -9,-10 -20,-15 -33,-15 -13,0 -25,5 -33,14 -9,10 -14,26 -14,46 z m 32,-99 20,-41 35,0 -33,41 -22,0 z"
         id="path353"
         inkscape:connector-curvature="0"
         style="fill:#1f1a17" /><path
         class="fil8"
         d="m 1415,1999 0,-157 24,0 0,22 c 11,-17 28,-26 50,-26 10,0 18,2 26,6 8,3 14,7 18,13 4,5 7,12 8,20 1,5 2,13 2,26 l 0,96 -27,0 0,-95 c 0,-11 -1,-19 -3,-25 -2,-5 -6,-9 -11,-13 -5,-3 -11,-4 -19,-4 -11,0 -21,3 -29,10 -8,8 -12,21 -12,41 l 0,86 -27,0 z"
         id="path355"
         inkscape:connector-curvature="0"
         style="fill:#1f1a17" /><path
         class="fil8"
         d="m 1770,1999 0,-19 c -10,15 -24,23 -44,23 -12,0 -24,-3 -34,-10 -11,-7 -19,-17 -25,-29 -6,-13 -9,-27 -9,-43 0,-16 3,-30 8,-43 6,-13 13,-23 24,-29 10,-7 22,-11 35,-11 10,0 18,2 25,6 8,4 14,10 19,16 l 0,-78 26,0 0,217 -25,0 z m -84,-78 c 0,20 4,35 13,45 8,10 18,15 30,15 11,0 21,-5 30,-14 8,-10 12,-24 12,-44 0,-21 -4,-37 -13,-47 -8,-10 -18,-15 -30,-15 -12,0 -22,4 -30,14 -8,10 -12,25 -12,46 z"
         id="path357"
         inkscape:connector-curvature="0"
         style="fill:#1f1a17" /><path
         class="fil8"
         d="m 1945,1949 27,3 c -4,16 -12,29 -24,38 -12,9 -27,13 -45,13 -23,0 -41,-7 -55,-21 -13,-14 -20,-34 -20,-60 0,-26 7,-47 21,-62 13,-14 31,-22 53,-22 21,0 38,8 51,22 14,14 20,34 20,60 0,2 0,4 0,8 l -117,0 c 1,17 6,30 14,39 9,9 20,14 33,14 10,0 18,-3 25,-8 7,-5 13,-13 17,-24 z m -88,-43 88,0 c -1,-14 -4,-24 -10,-30 -8,-10 -19,-16 -33,-16 -12,0 -23,4 -31,13 -8,8 -13,19 -14,33 z"
         id="path359"
         inkscape:connector-curvature="0"
         style="fill:#1f1a17" /><path
         class="fil8"
         d="m 2149,1976 3,23 c -7,2 -14,3 -20,3 -9,0 -17,-2 -22,-5 -6,-3 -9,-7 -12,-12 -2,-5 -3,-16 -3,-32 l 0,-90 -19,0 0,-21 19,0 0,-39 27,-16 0,55 27,0 0,21 -27,0 0,92 c 0,7 0,12 1,14 1,3 3,4 5,6 2,1 5,2 9,2 3,0 7,-1 12,-1 z"
         id="path361"
         inkscape:connector-curvature="0"
         style="fill:#1f1a17" /><path
         class="fil8"
         d="m 2273,1980 c -10,8 -19,14 -28,18 -10,3 -19,5 -30,5 -17,0 -30,-4 -40,-13 -9,-8 -14,-19 -14,-32 0,-8 2,-15 6,-21 3,-7 8,-12 13,-16 6,-3 12,-6 20,-8 5,-2 13,-3 23,-4 22,-3 38,-6 48,-10 0,-3 0,-5 0,-6 0,-11 -2,-19 -8,-23 -6,-7 -16,-9 -30,-9 -12,0 -22,2 -28,6 -6,4 -10,12 -13,23 l -26,-3 c 2,-11 6,-20 12,-27 5,-7 13,-12 23,-16 10,-4 22,-6 36,-6 13,0 24,2 33,5 8,3 14,7 18,12 4,5 7,11 9,18 0,5 1,13 1,25 l 0,35 c 0,25 0,41 2,48 1,6 3,12 6,18 l -28,0 c -2,-5 -4,-12 -5,-19 z m -2,-60 c -10,4 -24,8 -44,11 -11,1 -18,3 -23,5 -5,2 -8,5 -10,9 -3,3 -4,8 -4,12 0,7 3,13 8,18 5,5 13,7 24,7 10,0 19,-2 27,-7 8,-4 14,-10 18,-18 2,-6 4,-15 4,-27 l 0,-10 z"
         id="path363"
         inkscape:connector-curvature="0"
         style="fill:#1f1a17" /><path
         class="fil8"
         d="m 2339,1999 0,-217 26,0 0,217 -26,0 z"
         id="path365"
         inkscape:connector-curvature="0"
         style="fill:#1f1a17" /><path
         class="fil8"
         d="m 2515,1949 27,3 c -4,16 -12,29 -24,38 -12,9 -27,13 -45,13 -23,0 -41,-7 -55,-21 -13,-14 -20,-34 -20,-60 0,-26 7,-47 20,-62 14,-14 32,-22 53,-22 21,0 39,8 52,22 13,14 20,34 20,60 0,2 0,4 0,8 l -118,0 c 1,17 6,30 15,39 9,9 20,14 33,14 10,0 18,-3 25,-8 7,-5 12,-13 17,-24 z m -88,-43 88,0 c -1,-14 -5,-24 -10,-30 -9,-10 -20,-16 -33,-16 -13,0 -23,4 -31,13 -9,8 -13,19 -14,33 z"
         id="path367"
         inkscape:connector-curvature="0"
         style="fill:#1f1a17" /><path
         class="fil8"
         d="m 2576,1999 0,-157 24,0 0,22 c 11,-17 28,-26 50,-26 9,0 18,2 26,6 8,3 14,7 18,13 4,5 7,12 8,20 1,5 2,13 2,26 l 0,96 -27,0 0,-95 c 0,-11 -1,-19 -3,-25 -2,-5 -6,-9 -11,-13 -6,-3 -12,-4 -19,-4 -11,0 -21,3 -29,10 -9,8 -13,21 -13,41 l 0,86 -26,0 z"
         id="path369"
         inkscape:connector-curvature="0"
         style="fill:#1f1a17" /><path
         class="fil8"
         d="m 2803,1976 4,23 c -8,2 -15,3 -21,3 -9,0 -17,-2 -22,-5 -5,-3 -9,-7 -11,-12 -2,-5 -4,-16 -4,-32 l 0,-90 -19,0 0,-21 19,0 0,-39 27,-16 0,55 27,0 0,21 -27,0 0,92 c 0,7 0,12 1,14 1,3 3,4 5,6 2,1 5,2 9,2 3,0 7,-1 12,-1 z"
         id="path371"
         inkscape:connector-curvature="0"
         style="fill:#1f1a17" /><path
         class="fil8"
         d="m 2819,1921 c 0,-29 8,-51 24,-65 14,-12 30,-18 50,-18 21,0 39,7 53,22 14,14 20,33 20,58 0,21 -3,37 -9,48 -6,12 -15,21 -26,27 -12,7 -24,10 -38,10 -22,0 -40,-7 -54,-21 -13,-14 -20,-35 -20,-61 z m 27,0 c 0,20 5,35 14,45 8,10 19,15 33,15 13,0 24,-5 33,-15 9,-10 13,-26 13,-46 0,-20 -4,-34 -13,-44 -9,-10 -20,-15 -33,-15 -14,0 -25,5 -33,14 -9,10 -14,26 -14,46 z"
         id="path373"
         inkscape:connector-curvature="0"
         style="fill:#1f1a17" /><path
         class="fil8"
         d="m 3071,1952 27,-4 c 1,11 5,19 12,25 7,5 16,8 29,8 12,0 21,-2 27,-7 6,-5 9,-11 9,-18 0,-6 -3,-11 -8,-14 -4,-3 -13,-6 -27,-9 -20,-5 -33,-9 -41,-13 -8,-4 -13,-9 -17,-15 -4,-6 -6,-14 -6,-21 0,-7 2,-14 5,-20 3,-6 7,-11 13,-15 4,-3 10,-5 17,-7 7,-3 15,-4 23,-4 12,0 23,2 32,6 10,3 17,8 21,14 5,6 8,14 9,25 l -26,3 c -1,-8 -4,-14 -10,-19 -6,-4 -14,-7 -24,-7 -12,0 -21,2 -26,6 -6,4 -8,9 -8,15 0,3 1,6 3,9 2,3 6,5 10,7 3,1 11,3 24,7 19,5 32,9 39,12 8,4 14,8 18,14 4,6 6,14 6,23 0,9 -2,17 -8,25 -5,8 -12,14 -22,19 -10,4 -21,6 -33,6 -21,0 -36,-4 -47,-13 -11,-8 -18,-21 -21,-38 z"
         id="path375"
         inkscape:connector-curvature="0"
         style="fill:#1f1a17" /><path
         class="fil8"
         d="m 3342,1949 27,3 c -4,16 -12,29 -24,38 -12,9 -27,13 -45,13 -23,0 -41,-7 -55,-21 -13,-14 -20,-34 -20,-60 0,-26 7,-47 21,-62 13,-14 31,-22 53,-22 21,0 38,8 51,22 14,14 20,34 20,60 0,2 0,4 0,8 l -117,0 c 1,17 6,30 14,39 9,9 20,14 33,14 10,0 18,-3 25,-8 7,-5 13,-13 17,-24 z m -88,-43 88,0 c -1,-14 -4,-24 -10,-30 -9,-10 -20,-16 -33,-16 -12,0 -23,4 -31,13 -8,8 -13,19 -14,33 z"
         id="path377"
         inkscape:connector-curvature="0"
         style="fill:#1f1a17" /><path
         class="fil8"
         d="m 3398,2012 26,4 c 1,8 4,14 9,18 7,5 16,7 27,7 12,0 22,-2 29,-7 6,-5 11,-12 13,-21 2,-5 2,-17 2,-34 -11,14 -26,20 -43,20 -22,0 -39,-7 -51,-23 -11,-16 -17,-34 -17,-56 0,-15 2,-29 8,-42 5,-12 13,-22 23,-29 11,-7 23,-11 37,-11 18,0 34,8 46,23 l 0,-19 24,0 0,136 c 0,25 -2,42 -7,52 -5,10 -13,19 -24,24 -11,6 -24,9 -40,9 -19,0 -34,-4 -45,-12 -12,-9 -17,-21 -17,-39 z m 22,-94 c 0,21 4,36 12,45 9,10 19,14 31,14 12,0 23,-4 31,-14 8,-9 13,-24 13,-44 0,-20 -5,-34 -13,-44 -9,-10 -19,-14 -31,-14 -12,0 -22,4 -30,14 -9,10 -13,24 -13,43 z"
         id="path379"
         inkscape:connector-curvature="0"
         style="fill:#1f1a17" /><path
         class="fil8"
         d="m 3675,1999 0,-23 c -12,18 -29,27 -50,27 -9,0 -18,-2 -26,-5 -8,-4 -14,-8 -18,-14 -4,-5 -7,-12 -8,-20 -1,-5 -2,-13 -2,-24 l 0,-98 27,0 0,87 c 0,14 0,24 1,28 2,8 6,13 11,17 6,4 12,6 20,6 8,0 16,-2 23,-6 7,-4 12,-10 15,-17 3,-7 4,-17 4,-31 l 0,-84 27,0 0,157 -24,0 z m -56,-177 20,-41 35,0 -33,41 -22,0 z"
         id="path381"
         inkscape:connector-curvature="0"
         style="fill:#1f1a17" /><path
         class="fil8"
         d="m 3741,1999 0,-157 24,0 0,22 c 11,-17 28,-26 50,-26 9,0 18,2 26,6 8,3 14,7 18,13 4,5 7,12 8,20 1,5 2,13 2,26 l 0,96 -27,0 0,-95 c 0,-11 -1,-19 -3,-25 -2,-5 -6,-9 -11,-13 -6,-3 -12,-4 -19,-4 -11,0 -21,3 -29,10 -9,8 -13,21 -13,41 l 0,86 -26,0 z"
         id="path383"
         inkscape:connector-curvature="0"
         style="fill:#1f1a17" /><path
         class="fil8"
         d="m 220,2339 0,-218 27,0 0,218 -27,0 z"
         id="path385"
         inkscape:connector-curvature="0"
         style="fill:#1f1a17" /><path
         class="fil8"
         d="m 391,2319 c -10,9 -20,15 -29,18 -9,4 -19,5 -29,5 -17,0 -31,-4 -40,-12 -9,-9 -14,-20 -14,-33 0,-8 2,-15 5,-21 4,-6 8,-11 14,-15 6,-4 12,-7 19,-9 6,-1 13,-3 24,-4 22,-3 37,-6 48,-9 0,-4 0,-6 0,-7 0,-11 -3,-19 -8,-23 -7,-6 -17,-9 -30,-9 -13,0 -22,2 -28,6 -6,5 -10,13 -13,24 l -26,-4 c 2,-11 6,-20 11,-27 6,-7 14,-12 24,-16 10,-3 22,-5 36,-5 13,0 24,1 32,4 9,4 15,8 19,12 4,5 7,11 8,19 1,4 2,12 2,24 l 0,36 c 0,25 0,40 1,47 1,6 4,13 7,19 l -28,0 c -3,-6 -4,-12 -5,-20 z m -2,-59 c -10,4 -25,7 -44,10 -11,1 -19,3 -23,5 -5,2 -8,5 -11,9 -2,4 -3,8 -3,12 0,8 2,13 8,18 5,5 13,7 23,7 11,0 20,-2 28,-6 8,-5 14,-11 17,-19 3,-6 5,-15 5,-27 l 0,-9 z"
         id="path387"
         inkscape:connector-curvature="0"
         style="fill:#1f1a17" /><path
         class="fil8"
         d="m 446,2292 27,-4 c 1,10 5,18 12,24 7,5 16,8 29,8 12,0 21,-2 27,-7 6,-5 9,-11 9,-18 0,-6 -3,-11 -8,-14 -4,-2 -13,-5 -27,-9 -20,-5 -34,-9 -41,-13 -8,-3 -13,-8 -17,-15 -4,-6 -6,-13 -6,-21 0,-7 1,-13 5,-19 3,-6 7,-11 13,-15 4,-3 10,-6 17,-8 7,-2 15,-3 23,-3 12,0 23,1 32,5 10,4 17,8 21,14 4,7 7,15 9,25 l -26,3 c -1,-8 -5,-14 -10,-19 -6,-4 -14,-6 -24,-6 -13,0 -21,2 -27,6 -5,4 -7,8 -7,14 0,3 1,6 3,9 2,3 5,5 10,7 3,1 11,4 24,7 19,5 32,9 39,13 8,3 13,7 18,14 4,6 6,13 6,22 0,9 -3,18 -8,26 -5,7 -12,14 -22,18 -10,4 -21,6 -33,6 -21,0 -36,-4 -47,-13 -11,-8 -18,-21 -21,-37 z"
         id="path389"
         inkscape:connector-curvature="0"
         style="fill:#1f1a17" /><path
         class="fil8"
         d="m 796,2281 26,3 c -3,19 -10,33 -22,43 -12,10 -26,15 -43,15 -22,0 -39,-7 -52,-21 -13,-14 -20,-34 -20,-60 0,-17 3,-32 8,-45 6,-13 15,-22 26,-29 12,-6 24,-9 38,-9 17,0 31,4 42,13 11,8 18,21 21,36 l -26,4 c -3,-10 -7,-18 -13,-23 -7,-6 -14,-8 -23,-8 -14,0 -25,4 -33,14 -8,10 -13,25 -13,46 0,21 5,36 13,46 8,10 18,14 31,14 11,0 20,-3 27,-9 7,-7 11,-17 13,-30 z"
         id="path391"
         inkscape:connector-curvature="0"
         style="fill:#1f1a17" /><path
         class="fil8"
         d="m 835,2260 c 0,-29 8,-51 24,-65 14,-11 30,-17 50,-17 22,0 39,7 53,21 14,14 21,34 21,59 0,20 -3,36 -9,48 -7,11 -15,20 -27,27 -12,6 -24,9 -38,9 -22,0 -40,-7 -54,-21 -13,-14 -20,-34 -20,-61 z m 28,0 c 0,20 4,35 13,45 9,10 20,15 33,15 13,0 24,-5 33,-15 9,-10 13,-25 13,-46 0,-19 -4,-34 -13,-44 -9,-10 -20,-15 -33,-15 -13,0 -24,5 -33,15 -9,10 -13,25 -13,45 z"
         id="path393"
         inkscape:connector-curvature="0"
         style="fill:#1f1a17" /><path
         class="fil8"
         d="m 1014,2339 0,-158 24,0 0,22 c 5,-7 11,-14 20,-18 8,-5 17,-7 28,-7 11,0 21,2 28,7 8,5 13,12 16,20 13,-18 29,-27 49,-27 15,0 27,4 36,13 8,8 12,22 12,40 l 0,108 -26,0 0,-100 c 0,-10 -1,-18 -3,-23 -2,-4 -5,-8 -9,-11 -5,-3 -10,-4 -16,-4 -11,0 -21,3 -28,11 -7,7 -11,19 -11,35 l 0,92 -27,0 0,-103 c 0,-11 -2,-20 -6,-26 -4,-6 -11,-9 -21,-9 -8,0 -15,2 -21,6 -7,4 -11,9 -14,17 -3,8 -4,19 -4,33 l 0,82 -27,0 z"
         id="path395"
         inkscape:connector-curvature="0"
         style="fill:#1f1a17" /><path
         class="fil8"
         d="m 1267,2399 0,-218 24,0 0,21 c 6,-8 12,-14 20,-18 7,-4 16,-6 26,-6 13,0 25,3 35,10 11,7 19,17 24,29 5,13 8,27 8,42 0,16 -3,30 -9,43 -6,13 -14,23 -25,30 -11,7 -23,10 -35,10 -9,0 -17,-2 -24,-5 -7,-4 -13,-9 -17,-15 l 0,77 -27,0 z m 24,-138 c 0,20 4,35 12,45 9,9 19,14 30,14 12,0 22,-5 31,-15 8,-10 12,-25 12,-46 0,-20 -4,-35 -12,-45 -8,-10 -18,-15 -30,-15 -11,0 -21,5 -30,15 -9,11 -13,27 -13,47 z"
         id="path397"
         inkscape:connector-curvature="0"
         style="fill:#1f1a17" /><path
         class="fil8"
         d="m 1544,2288 27,3 c -4,17 -12,29 -24,38 -12,9 -27,13 -45,13 -23,0 -41,-7 -55,-21 -13,-14 -20,-34 -20,-60 0,-26 7,-47 20,-61 14,-15 32,-22 53,-22 21,0 39,7 52,21 13,14 20,35 20,61 0,1 0,4 0,7 l -118,0 c 1,17 6,30 15,40 9,9 20,13 33,13 10,0 18,-2 25,-7 7,-6 13,-14 17,-25 z m -88,-43 88,0 c -1,-13 -5,-23 -10,-30 -9,-10 -20,-15 -33,-15 -13,0 -23,4 -31,12 -9,8 -13,19 -14,33 z"
         id="path399"
         inkscape:connector-curvature="0"
         style="fill:#1f1a17" /><path
         class="fil8"
         d="m 1663,2315 4,23 c -8,2 -14,3 -20,3 -10,0 -18,-2 -23,-5 -5,-3 -9,-7 -11,-12 -2,-5 -3,-15 -3,-31 l 0,-91 -20,0 0,-21 20,0 0,-39 26,-16 0,55 27,0 0,21 -27,0 0,92 c 0,8 1,13 1,15 1,2 3,4 5,5 2,1 5,2 9,2 3,0 7,0 12,-1 z"
         id="path401"
         inkscape:connector-curvature="0"
         style="fill:#1f1a17" /><path
         class="fil8"
         d="m 1797,2288 27,3 c -4,17 -12,29 -24,38 -12,9 -27,13 -45,13 -23,0 -41,-7 -55,-21 -13,-14 -20,-34 -20,-60 0,-26 7,-47 21,-61 13,-15 31,-22 53,-22 21,0 38,7 51,21 14,14 20,35 20,61 0,1 0,4 0,7 l -117,0 c 1,17 6,30 14,40 9,9 20,13 33,13 10,0 18,-2 25,-7 7,-6 13,-14 17,-25 z m -88,-43 88,0 c -1,-13 -4,-23 -10,-30 -8,-10 -19,-15 -33,-15 -12,0 -23,4 -31,12 -8,8 -13,19 -14,33 z"
         id="path403"
         inkscape:connector-curvature="0"
         style="fill:#1f1a17" /><path
         class="fil8"
         d="m 1858,2339 0,-158 24,0 0,23 c 12,-18 28,-26 50,-26 10,0 18,1 26,5 8,3 14,8 18,13 4,6 7,12 8,20 1,5 2,14 2,26 l 0,97 -27,0 0,-96 c 0,-11 -1,-19 -3,-25 -2,-5 -6,-9 -11,-12 -5,-4 -11,-5 -19,-5 -11,0 -21,3 -29,11 -8,7 -12,21 -12,41 l 0,86 -27,0 z"
         id="path405"
         inkscape:connector-curvature="0"
         style="fill:#1f1a17" /><path
         class="fil8"
         d="m 2130,2281 26,3 c -3,19 -10,33 -22,43 -12,10 -27,15 -44,15 -21,0 -39,-7 -52,-21 -13,-14 -19,-34 -19,-60 0,-17 2,-32 8,-45 6,-13 14,-22 26,-29 11,-6 24,-9 37,-9 18,0 32,4 42,13 11,8 18,21 21,36 l -26,4 c -2,-10 -6,-18 -13,-23 -6,-6 -14,-8 -23,-8 -13,0 -24,4 -32,14 -9,10 -13,25 -13,46 0,21 4,36 12,46 8,10 19,14 32,14 10,0 19,-3 26,-9 7,-7 12,-17 14,-30 z"
         id="path407"
         inkscape:connector-curvature="0"
         style="fill:#1f1a17" /><path
         class="fil8"
         d="m 2179,2152 0,-31 27,0 0,31 -27,0 z m 0,187 0,-158 27,0 0,158 -27,0 z"
         id="path409"
         inkscape:connector-curvature="0"
         style="fill:#1f1a17" /><path
         class="fil8"
         d="m 2349,2319 c -10,9 -20,15 -29,18 -9,4 -19,5 -29,5 -17,0 -31,-4 -40,-12 -9,-9 -14,-20 -14,-33 0,-8 2,-15 5,-21 4,-6 8,-11 14,-15 6,-4 12,-7 19,-9 6,-1 13,-3 24,-4 22,-3 37,-6 48,-9 0,-4 0,-6 0,-7 0,-11 -3,-19 -8,-23 -7,-6 -17,-9 -30,-9 -13,0 -22,2 -28,6 -6,5 -10,13 -13,24 l -26,-4 c 2,-11 6,-20 11,-27 6,-7 14,-12 24,-16 10,-3 22,-5 36,-5 13,0 24,1 32,4 9,4 15,8 19,12 4,5 7,11 8,19 1,4 2,12 2,24 l 0,36 c 0,25 0,40 1,47 1,6 4,13 7,19 l -28,0 c -3,-6 -4,-12 -5,-20 z m -2,-59 c -10,4 -25,7 -44,10 -11,1 -19,3 -23,5 -5,2 -8,5 -11,9 -2,4 -3,8 -3,12 0,8 2,13 8,18 5,5 13,7 23,7 11,0 20,-2 28,-6 8,-5 14,-11 17,-19 3,-6 5,-15 5,-27 l 0,-9 z"
         id="path411"
         inkscape:connector-curvature="0"
         style="fill:#1f1a17" /><path
         class="fil8"
         d="m 2404,2292 27,-4 c 1,10 5,18 12,24 7,5 16,8 29,8 12,0 21,-2 27,-7 6,-5 9,-11 9,-18 0,-6 -3,-11 -8,-14 -4,-2 -13,-5 -27,-9 -20,-5 -34,-9 -41,-13 -8,-3 -13,-8 -17,-15 -4,-6 -6,-13 -6,-21 0,-7 1,-13 5,-19 3,-6 7,-11 13,-15 4,-3 10,-6 17,-8 7,-2 15,-3 23,-3 12,0 23,1 32,5 10,4 17,8 21,14 4,7 8,15 9,25 l -26,3 c -1,-8 -5,-14 -10,-19 -6,-4 -14,-6 -24,-6 -13,0 -21,2 -27,6 -5,4 -7,8 -7,14 0,3 1,6 3,9 2,3 5,5 10,7 3,1 11,4 24,7 19,5 32,9 39,13 8,3 14,7 18,14 4,6 6,13 6,22 0,9 -2,18 -8,26 -5,7 -12,14 -22,18 -10,4 -21,6 -33,6 -21,0 -36,-4 -47,-13 -11,-8 -18,-21 -21,-37 z"
         id="path413"
         inkscape:connector-curvature="0"
         style="fill:#1f1a17" /><path
         class="fil8"
         d="m 2651,2339 0,-158 24,0 0,24 c 6,-11 12,-18 17,-22 5,-4 11,-5 17,-5 9,0 18,3 27,8 l -9,25 c -6,-4 -13,-6 -19,-6 -6,0 -11,2 -16,5 -5,4 -8,9 -10,15 -3,10 -4,20 -4,31 l 0,83 -27,0 z"
         id="path415"
         inkscape:connector-curvature="0"
         style="fill:#1f1a17" /><path
         class="fil8"
         d="m 2860,2288 28,3 c -5,17 -13,29 -24,38 -12,9 -27,13 -46,13 -23,0 -41,-7 -54,-21 -14,-14 -21,-34 -21,-60 0,-26 7,-47 21,-61 14,-15 31,-22 53,-22 21,0 38,7 52,21 13,14 20,35 20,61 0,1 0,4 -1,7 l -117,0 c 1,17 6,30 15,40 9,9 19,13 33,13 9,0 18,-2 25,-7 7,-6 12,-14 16,-25 z m -87,-43 87,0 c -1,-13 -4,-23 -10,-30 -8,-10 -19,-15 -33,-15 -12,0 -22,4 -31,12 -8,8 -13,19 -13,33 z"
         id="path417"
         inkscape:connector-curvature="0"
         style="fill:#1f1a17" /><path
         class="fil8"
         d="m 3022,2399 0,-77 c -5,6 -10,11 -18,14 -7,4 -15,6 -24,6 -18,0 -34,-7 -48,-22 -13,-15 -20,-36 -20,-62 0,-15 3,-30 8,-42 6,-13 14,-22 24,-29 10,-6 22,-9 34,-9 20,0 35,8 46,24 l 0,-21 24,0 0,218 -26,0 z m -83,-139 c 0,20 5,35 13,45 9,10 19,15 31,15 11,0 21,-4 29,-14 8,-10 12,-24 12,-44 0,-21 -4,-37 -13,-47 -8,-11 -18,-16 -30,-16 -12,0 -22,5 -30,14 -8,10 -12,26 -12,47 z"
         id="path419"
         inkscape:connector-curvature="0"
         style="fill:#1f1a17" /><path
         class="fil8"
         d="m 3193,2339 0,-23 c -12,17 -29,26 -50,26 -9,0 -18,-2 -26,-5 -8,-4 -14,-8 -18,-13 -4,-6 -6,-12 -8,-20 -1,-6 -1,-14 -1,-25 l 0,-98 26,0 0,88 c 0,14 1,23 2,28 2,7 5,12 11,16 5,4 12,6 20,6 8,0 15,-2 22,-6 7,-4 12,-10 15,-17 3,-7 5,-17 5,-30 l 0,-85 26,0 0,158 -24,0 z"
         id="path421"
         inkscape:connector-curvature="0"
         style="fill:#1f1a17" /><path
         class="fil8"
         d="m 3367,2288 27,3 c -4,17 -12,29 -24,38 -12,9 -27,13 -45,13 -23,0 -41,-7 -55,-21 -13,-14 -20,-34 -20,-60 0,-26 7,-47 21,-61 13,-15 31,-22 53,-22 21,0 38,7 51,21 14,14 20,35 20,61 0,1 0,4 0,7 l -117,0 c 1,17 6,30 14,40 9,9 20,13 33,13 10,0 18,-2 25,-7 7,-6 13,-14 17,-25 z m -88,-43 88,0 c -1,-13 -4,-23 -10,-30 -8,-10 -19,-15 -33,-15 -12,0 -23,4 -31,12 -8,8 -13,19 -14,33 z"
         id="path423"
         inkscape:connector-curvature="0"
         style="fill:#1f1a17" /><path
         class="fil8"
         d="m 3428,2339 0,-158 24,0 0,24 c 6,-11 11,-18 17,-22 5,-4 11,-5 17,-5 9,0 18,3 27,8 l -9,25 c -7,-4 -13,-6 -20,-6 -5,0 -11,2 -15,5 -5,4 -8,9 -10,15 -3,10 -5,20 -5,31 l 0,83 -26,0 z"
         id="path425"
         inkscape:connector-curvature="0"
         style="fill:#1f1a17" /><path
         class="fil8"
         d="m 3529,2152 0,-31 27,0 0,31 -27,0 z m 0,187 0,-158 27,0 0,158 -27,0 z"
         id="path427"
         inkscape:connector-curvature="0"
         style="fill:#1f1a17" /><path
         class="fil8"
         d="m 3699,2339 0,-20 c -10,15 -25,23 -44,23 -13,0 -24,-3 -35,-10 -11,-7 -19,-17 -24,-29 -6,-13 -9,-27 -9,-43 0,-16 3,-30 8,-43 5,-12 13,-22 23,-29 11,-7 23,-10 35,-10 10,0 18,2 26,6 7,4 13,9 18,15 l 0,-78 26,0 0,218 -24,0 z m -85,-79 c 0,20 5,35 13,45 9,10 19,15 30,15 12,0 22,-4 30,-14 8,-10 12,-24 12,-44 0,-21 -4,-37 -12,-47 -9,-10 -19,-15 -31,-15 -12,0 -22,5 -30,14 -8,10 -12,25 -12,46 z"
         id="path429"
         inkscape:connector-curvature="0"
         style="fill:#1f1a17" /><path
         class="fil8"
         d="m 3868,2319 c -10,9 -19,15 -28,18 -10,4 -19,5 -30,5 -17,0 -30,-4 -40,-12 -9,-9 -14,-20 -14,-33 0,-8 2,-15 6,-21 3,-6 8,-11 13,-15 6,-4 13,-7 20,-9 5,-1 13,-3 23,-4 22,-3 38,-6 48,-9 0,-4 0,-6 0,-7 0,-11 -2,-19 -7,-23 -7,-6 -17,-9 -31,-9 -12,0 -22,2 -28,6 -6,5 -10,13 -13,24 l -26,-4 c 2,-11 6,-20 12,-27 5,-7 13,-12 23,-16 11,-3 22,-5 36,-5 13,0 24,1 33,4 8,4 14,8 18,12 4,5 7,11 9,19 0,4 1,12 1,24 l 0,36 c 0,25 0,40 2,47 1,6 3,13 6,19 l -28,0 c -2,-6 -4,-12 -5,-20 z m -2,-59 c -10,4 -24,7 -44,10 -11,1 -18,3 -23,5 -4,2 -8,5 -10,9 -3,4 -4,8 -4,12 0,8 3,13 8,18 5,5 13,7 24,7 10,0 19,-2 27,-6 8,-5 14,-11 18,-19 3,-6 4,-15 4,-27 l 0,-9 z"
         id="path431"
         inkscape:connector-curvature="0"
         style="fill:#1f1a17" /><path
         class="fil8"
         d="m 3924,2292 26,-4 c 1,10 6,18 12,24 7,5 17,8 29,8 12,0 21,-2 27,-7 6,-5 9,-11 9,-18 0,-6 -3,-11 -8,-14 -4,-2 -13,-5 -27,-9 -20,-5 -33,-9 -41,-13 -7,-3 -13,-8 -17,-15 -4,-6 -6,-13 -6,-21 0,-7 2,-13 5,-19 3,-6 8,-11 13,-15 4,-3 10,-6 17,-8 7,-2 15,-3 23,-3 12,0 23,1 33,5 9,4 16,8 20,14 5,7 8,15 9,25 l -26,3 c -1,-8 -4,-14 -10,-19 -6,-4 -14,-6 -24,-6 -12,0 -21,2 -26,6 -6,4 -8,8 -8,14 0,3 1,6 3,9 2,3 6,5 10,7 3,1 11,4 24,7 19,5 32,9 39,13 8,3 14,7 18,14 4,6 6,13 6,22 0,9 -2,18 -7,26 -6,7 -13,14 -23,18 -10,4 -21,6 -33,6 -21,0 -36,-4 -47,-13 -11,-8 -17,-21 -20,-37 z"
         id="path433"
         inkscape:connector-curvature="0"
         style="fill:#1f1a17" /><path
         class="fil8"
         d="m 221,2738 0,-218 24,0 0,21 c 6,-8 12,-14 19,-18 8,-4 16,-6 27,-6 13,0 25,3 35,10 11,7 18,17 23,30 6,12 8,26 8,41 0,16 -3,31 -8,44 -6,12 -15,22 -26,29 -11,7 -22,10 -34,10 -9,0 -17,-1 -24,-5 -7,-4 -13,-9 -18,-14 l 0,76 -26,0 z m 24,-138 c 0,20 4,35 12,45 8,10 18,15 30,15 12,0 22,-5 30,-16 9,-10 13,-25 13,-46 0,-20 -4,-35 -12,-45 -9,-10 -18,-15 -30,-15 -11,0 -21,5 -30,16 -9,10 -13,26 -13,46 z"
         id="path435"
         inkscape:connector-curvature="0"
         style="fill:#1f1a17" /><path
         class="fil8"
         d="m 380,2599 c 0,-29 8,-51 24,-65 13,-11 30,-17 49,-17 22,0 40,7 54,21 13,14 20,34 20,59 0,20 -3,36 -9,48 -6,11 -15,20 -27,27 -11,6 -24,9 -38,9 -22,0 -39,-7 -53,-21 -14,-14 -20,-34 -20,-61 z m 27,0 c 0,20 4,35 13,45 9,11 20,16 33,16 14,0 25,-5 34,-16 8,-10 13,-25 13,-46 0,-19 -5,-34 -14,-44 -8,-10 -19,-15 -33,-15 -13,0 -24,5 -33,15 -9,10 -13,25 -13,45 z"
         id="path437"
         inkscape:connector-curvature="0"
         style="fill:#1f1a17" /><path
         class="fil8"
         d="m 558,2678 0,-158 24,0 0,24 c 6,-11 12,-18 17,-22 5,-3 11,-5 17,-5 9,0 18,3 28,8 l -10,25 c -6,-4 -13,-6 -19,-6 -6,0 -11,2 -16,6 -4,3 -8,8 -10,14 -3,10 -4,20 -4,31 l 0,83 -27,0 z"
         id="path439"
         inkscape:connector-curvature="0"
         style="fill:#1f1a17" /><path
         class="fil8"
         d="m 733,2631 27,-4 c 1,10 5,18 12,24 7,6 16,9 28,9 13,0 22,-3 28,-8 6,-5 9,-11 9,-17 0,-7 -3,-11 -8,-15 -4,-2 -13,-5 -28,-9 -19,-5 -33,-9 -40,-13 -8,-3 -14,-8 -17,-15 -4,-6 -6,-13 -6,-21 0,-7 1,-13 5,-19 3,-6 7,-11 13,-15 4,-3 9,-6 17,-8 7,-2 14,-3 23,-3 12,0 23,2 32,5 10,4 16,9 21,15 4,6 7,14 9,24 l -26,4 c -1,-8 -5,-15 -10,-19 -6,-5 -14,-7 -24,-7 -13,0 -21,2 -27,6 -5,4 -8,9 -8,14 0,4 2,7 4,10 2,2 5,5 10,7 3,1 11,3 24,6 18,5 32,10 39,13 8,3 13,8 18,14 4,6 6,14 6,23 0,9 -3,17 -8,25 -5,8 -12,14 -22,18 -10,4 -21,6 -33,6 -21,0 -37,-4 -47,-12 -11,-9 -18,-21 -21,-38 z"
         id="path441"
         inkscape:connector-curvature="0"
         style="fill:#1f1a17" /><path
         class="fil8"
         d="m 999,2678 0,-23 c -12,18 -29,26 -50,26 -9,0 -18,-1 -26,-5 -8,-3 -14,-8 -18,-13 -4,-6 -7,-12 -8,-20 -1,-5 -2,-14 -2,-25 l 0,-98 27,0 0,88 c 0,14 0,23 1,28 2,7 6,12 11,17 6,4 12,6 20,6 8,0 16,-3 23,-7 7,-4 12,-9 15,-16 3,-7 4,-18 4,-31 l 0,-85 27,0 0,158 -24,0 z"
         id="path443"
         inkscape:connector-curvature="0"
         style="fill:#1f1a17" /><path
         class="fil8"
         d="m 1139,2599 c 0,-29 8,-51 24,-65 14,-11 30,-17 50,-17 22,0 39,7 53,21 14,14 21,34 21,59 0,20 -3,36 -10,48 -6,11 -14,20 -26,27 -12,6 -24,9 -38,9 -22,0 -40,-7 -54,-21 -13,-14 -20,-34 -20,-61 z m 27,0 c 0,20 5,35 14,45 9,11 20,16 33,16 13,0 24,-5 33,-16 9,-10 13,-25 13,-46 0,-19 -4,-34 -13,-44 -9,-10 -20,-15 -33,-15 -13,0 -24,5 -33,15 -9,10 -14,25 -14,45 z"
         id="path445"
         inkscape:connector-curvature="0"
         style="fill:#1f1a17" /><path
         class="fil8"
         d="m 1318,2678 0,-158 24,0 0,24 c 6,-11 11,-18 17,-22 5,-3 11,-5 17,-5 9,0 18,3 27,8 l -9,25 c -7,-4 -13,-6 -20,-6 -5,0 -11,2 -15,6 -5,3 -8,8 -10,14 -3,10 -5,20 -5,31 l 0,83 -26,0 z"
         id="path447"
         inkscape:connector-curvature="0"
         style="fill:#1f1a17" /><path
         class="fil8"
         d="m 1414,2691 26,4 c 1,8 4,14 9,17 7,5 16,8 27,8 13,0 22,-3 29,-8 7,-5 11,-12 14,-20 1,-6 2,-17 1,-35 -11,14 -26,21 -43,21 -22,0 -39,-8 -50,-23 -12,-16 -18,-35 -18,-57 0,-15 3,-29 8,-41 5,-13 13,-23 24,-30 10,-7 22,-10 36,-10 19,0 34,7 46,22 l 0,-19 25,0 0,137 c 0,24 -3,41 -8,52 -5,10 -13,18 -24,24 -10,6 -24,9 -40,9 -18,0 -34,-4 -45,-13 -12,-8 -17,-21 -17,-38 z m 22,-95 c 0,21 4,36 13,46 8,9 18,14 30,14 13,0 23,-5 31,-14 9,-10 13,-25 13,-45 0,-19 -5,-34 -13,-43 -9,-10 -19,-15 -31,-15 -12,0 -22,5 -30,14 -9,10 -13,24 -13,43 z"
         id="path449"
         inkscape:connector-curvature="0"
         style="fill:#1f1a17" /><path
         class="fil8"
         d="m 1691,2659 c -10,8 -20,14 -29,17 -9,4 -19,5 -29,5 -18,0 -31,-4 -40,-12 -9,-9 -14,-19 -14,-33 0,-7 2,-14 5,-21 4,-6 8,-11 14,-15 6,-4 12,-7 19,-9 5,-1 13,-3 24,-4 21,-2 37,-5 47,-9 1,-4 1,-6 1,-7 0,-11 -3,-19 -8,-23 -7,-6 -17,-9 -30,-9 -13,0 -22,2 -28,7 -6,4 -11,12 -13,23 l -27,-4 c 3,-11 7,-20 12,-27 6,-7 13,-12 24,-16 10,-3 22,-5 36,-5 13,0 24,2 32,5 9,3 15,7 19,12 4,4 7,10 8,18 1,4 1,13 1,24 l 0,36 c 0,25 1,40 2,47 1,7 4,13 7,19 l -28,0 c -3,-6 -5,-12 -5,-19 z m -3,-60 c -9,4 -24,7 -43,10 -11,2 -19,3 -23,5 -5,2 -8,5 -11,9 -2,4 -4,8 -4,13 0,7 3,13 8,17 6,5 14,8 24,8 10,0 19,-3 27,-7 8,-5 14,-11 18,-19 3,-6 4,-15 4,-26 l 0,-10 z"
         id="path451"
         inkscape:connector-curvature="0"
         style="fill:#1f1a17" /><path
         class="fil8"
         d="m 1757,2678 0,-158 24,0 0,23 c 11,-17 28,-26 50,-26 9,0 18,2 26,5 8,3 14,8 18,13 4,6 7,13 8,20 1,5 2,14 2,26 l 0,97 -27,0 0,-96 c 0,-11 -1,-19 -3,-24 -2,-6 -6,-10 -11,-13 -5,-3 -12,-5 -19,-5 -11,0 -21,4 -29,11 -8,7 -12,21 -12,41 l 0,86 -27,0 z"
         id="path453"
         inkscape:connector-curvature="0"
         style="fill:#1f1a17" /><path
         class="fil8"
         d="m 1926,2491 0,-30 27,0 0,30 -27,0 z m 0,187 0,-158 27,0 0,158 -27,0 z"
         id="path455"
         inkscape:connector-curvature="0"
         style="fill:#1f1a17" /><path
         class="fil8"
         d="m 1979,2678 0,-22 100,-115 c -11,1 -21,1 -30,1 l -64,0 0,-22 129,0 0,18 -86,100 -16,18 c 12,-1 23,-1 34,-1 l 72,0 0,23 -139,0 z"
         id="path457"
         inkscape:connector-curvature="0"
         style="fill:#1f1a17" /><path
         class="fil8"
         d="m 2248,2659 c -10,8 -20,14 -29,17 -9,4 -19,5 -29,5 -18,0 -31,-4 -40,-12 -9,-9 -14,-19 -14,-33 0,-7 2,-14 5,-21 4,-6 8,-11 14,-15 6,-4 12,-7 19,-9 5,-1 13,-3 24,-4 21,-2 37,-5 48,-9 0,-4 0,-6 0,-7 0,-11 -3,-19 -8,-23 -7,-6 -17,-9 -30,-9 -13,0 -22,2 -28,7 -6,4 -10,12 -13,23 l -26,-4 c 2,-11 6,-20 11,-27 6,-7 14,-12 24,-16 10,-3 22,-5 36,-5 13,0 24,2 32,5 9,3 15,7 19,12 4,4 7,10 8,18 1,4 2,13 2,24 l 0,36 c 0,25 0,40 1,47 1,7 4,13 7,19 l -28,0 c -3,-6 -4,-12 -5,-19 z m -2,-60 c -10,4 -25,7 -44,10 -11,2 -19,3 -23,5 -5,2 -8,5 -11,9 -2,4 -4,8 -4,13 0,7 3,13 9,17 5,5 13,8 23,8 10,0 20,-3 28,-7 8,-5 14,-11 17,-19 3,-6 5,-15 5,-26 l 0,-10 z"
         id="path459"
         inkscape:connector-curvature="0"
         style="fill:#1f1a17" /><path
         class="fil8"
         d="m 2417,2620 26,4 c -3,18 -10,32 -22,42 -12,10 -26,15 -44,15 -21,0 -39,-7 -52,-21 -13,-14 -19,-34 -19,-60 0,-17 3,-32 8,-45 6,-13 14,-22 26,-29 11,-6 24,-9 37,-9 18,0 32,4 42,13 11,9 18,21 21,37 l -26,4 c -2,-11 -6,-19 -13,-24 -6,-5 -14,-8 -22,-8 -14,0 -25,5 -33,14 -9,10 -13,25 -13,46 0,21 4,37 12,46 8,10 19,15 32,15 11,0 19,-4 26,-10 7,-7 12,-16 14,-30 z"
         id="path461"
         inkscape:connector-curvature="0"
         style="fill:#1f1a17" /><path
         class="fil8"
         d="m 2466,2491 0,-30 27,0 0,30 -27,0 z m 0,187 0,-158 27,0 0,158 -27,0 z"
         id="path463"
         inkscape:connector-curvature="0"
         style="fill:#1f1a17" /><path
         class="fil8"
         d="m 2523,2599 c 0,-29 8,-51 25,-65 13,-11 30,-17 49,-17 22,0 39,7 53,21 14,14 21,34 21,59 0,20 -3,36 -9,48 -6,11 -15,20 -27,27 -11,6 -24,9 -38,9 -22,0 -40,-7 -53,-21 -14,-14 -21,-34 -21,-61 z m 28,0 c 0,20 4,35 13,45 9,11 20,16 33,16 13,0 24,-5 33,-16 9,-10 13,-25 13,-46 0,-19 -4,-34 -13,-44 -9,-10 -20,-15 -33,-15 -13,0 -24,5 -33,15 -9,10 -13,25 -13,45 z m 31,-98 20,-42 35,0 -33,42 -22,0 z"
         id="path465"
         inkscape:connector-curvature="0"
         style="fill:#1f1a17" /><path
         class="fil8"
         d="m 2702,2678 0,-158 24,0 0,23 c 12,-17 28,-26 50,-26 10,0 18,2 26,5 8,3 14,8 18,13 4,6 7,13 9,20 1,5 1,14 1,26 l 0,97 -27,0 0,-96 c 0,-11 -1,-19 -3,-24 -2,-6 -6,-10 -11,-13 -5,-3 -11,-5 -18,-5 -12,0 -22,4 -30,11 -8,7 -12,21 -12,41 l 0,86 -27,0 z"
         id="path467"
         inkscape:connector-curvature="0"
         style="fill:#1f1a17" /><path
         class="fil8"
         d="m 2878,2678 0,-30 30,0 0,30 c 0,11 -2,20 -6,27 -4,7 -10,12 -18,16 l -8,-11 c 6,-3 10,-7 13,-11 2,-5 4,-12 4,-21 l -15,0 z"
         id="path469"
         inkscape:connector-curvature="0"
         style="fill:#1f1a17" /><path
         class="fil8"
         d="m 3040,2738 0,-218 24,0 0,21 c 6,-8 12,-14 19,-18 8,-4 16,-6 27,-6 13,0 25,3 35,10 11,7 18,17 24,30 5,12 7,26 7,41 0,16 -2,31 -8,44 -6,12 -14,22 -25,29 -11,7 -23,10 -35,10 -9,0 -17,-1 -24,-5 -7,-4 -13,-9 -18,-14 l 0,76 -26,0 z m 24,-138 c 0,20 4,35 12,45 8,10 18,15 30,15 12,0 22,-5 30,-16 9,-10 13,-25 13,-46 0,-20 -4,-35 -12,-45 -8,-10 -18,-15 -30,-15 -11,0 -21,5 -30,16 -9,10 -13,26 -13,46 z"
         id="path471"
         inkscape:connector-curvature="0"
         style="fill:#1f1a17" /><path
         class="fil8"
         d="m 3208,2678 0,-158 24,0 0,24 c 6,-11 12,-18 17,-22 6,-3 11,-5 17,-5 9,0 19,3 28,8 l -9,25 c -7,-4 -13,-6 -20,-6 -6,0 -11,2 -16,6 -4,3 -8,8 -10,14 -3,10 -4,20 -4,31 l 0,83 -27,0 z"
         id="path473"
         inkscape:connector-curvature="0"
         style="fill:#1f1a17" /><path
         class="fil8"
         d="m 3418,2627 27,4 c -4,16 -12,28 -24,37 -12,9 -27,13 -45,13 -23,0 -41,-7 -55,-21 -13,-14 -20,-34 -20,-59 0,-27 7,-48 20,-62 14,-15 32,-22 53,-22 21,0 39,7 52,21 13,15 20,35 20,61 0,2 0,4 0,7 l -118,0 c 1,17 6,31 15,40 9,9 20,14 33,14 10,0 18,-3 25,-8 7,-5 12,-13 17,-25 z m -88,-43 88,0 c -1,-13 -5,-23 -10,-30 -9,-10 -20,-15 -33,-15 -13,0 -23,4 -31,12 -9,8 -13,19 -14,33 z"
         id="path475"
         inkscape:connector-curvature="0"
         style="fill:#1f1a17" /><path
         class="fil8"
         d="m 3468,2631 26,-4 c 2,10 6,18 13,24 6,6 16,9 28,9 12,0 22,-3 27,-8 6,-5 9,-11 9,-17 0,-7 -2,-11 -8,-15 -3,-2 -12,-5 -27,-9 -19,-5 -33,-9 -41,-13 -7,-3 -13,-8 -17,-15 -4,-6 -6,-13 -6,-21 0,-7 2,-13 5,-19 3,-6 8,-11 13,-15 5,-3 10,-6 17,-8 7,-2 15,-3 23,-3 13,0 24,2 33,5 9,4 16,9 21,15 4,6 7,14 9,24 l -26,4 c -1,-8 -5,-15 -11,-19 -5,-5 -13,-7 -24,-7 -12,0 -21,2 -26,6 -5,4 -8,9 -8,14 0,4 1,7 3,10 3,2 6,5 11,7 2,1 10,3 23,6 19,5 32,10 40,13 7,3 13,8 17,14 5,6 7,14 7,23 0,9 -3,17 -8,25 -5,8 -13,14 -23,18 -9,4 -20,6 -33,6 -20,0 -36,-4 -47,-12 -10,-9 -17,-21 -20,-38 z"
         id="path477"
         inkscape:connector-curvature="0"
         style="fill:#1f1a17" /><path
         class="fil8"
         d="m 3738,2627 28,4 c -5,16 -13,28 -24,37 -12,9 -27,13 -45,13 -23,0 -42,-7 -55,-21 -14,-14 -20,-34 -20,-59 0,-27 6,-48 20,-62 14,-15 31,-22 53,-22 21,0 38,7 52,21 13,15 20,35 20,61 0,2 0,4 0,7 l -118,0 c 1,17 6,31 15,40 9,9 20,14 33,14 10,0 18,-3 25,-8 7,-5 12,-13 16,-25 z m -87,-43 88,0 c -2,-13 -5,-23 -11,-30 -8,-10 -19,-15 -33,-15 -12,0 -22,4 -30,12 -9,8 -13,19 -14,33 z"
         id="path479"
         inkscape:connector-curvature="0"
         style="fill:#1f1a17" /><path
         class="fil8"
         d="m 3799,2678 0,-217 26,0 0,217 -26,0 z"
         id="path481"
         inkscape:connector-curvature="0"
         style="fill:#1f1a17" /><path
         class="fil8"
         d="m 3975,2627 27,4 c -4,16 -12,28 -24,37 -12,9 -27,13 -45,13 -23,0 -41,-7 -55,-21 -13,-14 -20,-34 -20,-59 0,-27 7,-48 20,-62 14,-15 32,-22 53,-22 22,0 39,7 52,21 13,15 20,35 20,61 0,2 0,4 0,7 l -117,0 c 0,17 5,31 14,40 9,9 20,14 33,14 10,0 18,-3 25,-8 7,-5 13,-13 17,-25 z m -88,-43 88,0 c -1,-13 -5,-23 -10,-30 -9,-10 -20,-15 -33,-15 -12,0 -23,4 -31,12 -8,8 -13,19 -14,33 z"
         id="path483"
         inkscape:connector-curvature="0"
         style="fill:#1f1a17" /><path
         class="fil8"
         d="m 4138,2620 27,4 c -3,18 -10,32 -22,42 -12,10 -27,15 -44,15 -21,0 -39,-7 -52,-21 -13,-14 -19,-34 -19,-60 0,-17 2,-32 8,-45 6,-13 14,-22 26,-29 11,-6 24,-9 37,-9 17,0 31,4 42,13 11,9 18,21 21,37 l -26,4 c -2,-11 -7,-19 -13,-24 -6,-5 -14,-8 -23,-8 -13,0 -24,5 -32,14 -9,10 -13,25 -13,46 0,21 4,37 12,46 8,10 19,15 32,15 10,0 19,-4 26,-10 7,-7 12,-16 13,-30 z"
         id="path485"
         inkscape:connector-curvature="0"
         style="fill:#1f1a17" /><path
         class="fil8"
         d="m 4290,2620 27,4 c -3,18 -11,32 -22,42 -12,10 -27,15 -44,15 -22,0 -39,-7 -52,-21 -13,-14 -20,-34 -20,-60 0,-17 3,-32 9,-45 6,-13 14,-22 26,-29 11,-6 24,-9 37,-9 17,0 31,4 42,13 11,9 18,21 21,37 l -26,4 c -2,-11 -7,-19 -13,-24 -6,-5 -14,-8 -23,-8 -13,0 -24,5 -33,14 -8,10 -12,25 -12,46 0,21 4,37 12,46 8,10 19,15 32,15 10,0 19,-4 26,-10 7,-7 11,-16 13,-30 z"
         id="path487"
         inkscape:connector-curvature="0"
         style="fill:#1f1a17" /><path
         class="fil8"
         d="m 4340,2491 0,-30 26,0 0,30 -26,0 z m 0,187 0,-158 26,0 0,158 -26,0 z"
         id="path489"
         inkscape:connector-curvature="0"
         style="fill:#1f1a17" /><path
         class="fil8"
         d="m 4397,2599 c 0,-29 8,-51 24,-65 14,-11 30,-17 50,-17 21,0 39,7 53,21 14,14 20,34 20,59 0,20 -3,36 -9,48 -6,11 -15,20 -26,27 -12,6 -24,9 -38,9 -22,0 -40,-7 -54,-21 -13,-14 -20,-34 -20,-61 z m 27,0 c 0,20 5,35 14,45 8,11 19,16 33,16 13,0 24,-5 33,-16 9,-10 13,-25 13,-46 0,-19 -4,-34 -13,-44 -9,-10 -20,-15 -33,-15 -14,0 -25,5 -33,15 -9,10 -14,25 -14,45 z m 32,-98 20,-42 35,0 -33,42 -22,0 z"
         id="path491"
         inkscape:connector-curvature="0"
         style="fill:#1f1a17" /><path
         class="fil8"
         d="m 4576,2678 0,-158 24,0 0,23 c 11,-17 28,-26 50,-26 9,0 18,2 26,5 8,3 14,8 18,13 4,6 7,13 8,20 1,5 2,14 2,26 l 0,97 -27,0 0,-96 c 0,-11 -1,-19 -3,-24 -2,-6 -6,-10 -11,-13 -5,-3 -12,-5 -19,-5 -11,0 -21,4 -29,11 -8,7 -13,21 -13,41 l 0,86 -26,0 z"
         id="path493"
         inkscape:connector-curvature="0"
         style="fill:#1f1a17" /><path
         class="fil8"
         d="m 221,3078 0,-218 24,0 0,20 c 6,-8 12,-14 19,-18 8,-4 16,-6 27,-6 13,0 25,4 35,11 11,6 18,16 23,29 6,12 8,26 8,41 0,16 -3,31 -8,44 -6,13 -15,23 -26,29 -11,7 -22,11 -34,11 -9,0 -17,-2 -24,-6 -7,-4 -13,-8 -18,-14 l 0,77 -26,0 z m 24,-139 c 0,21 4,36 12,45 8,10 18,15 30,15 12,0 22,-5 30,-15 9,-10 13,-26 13,-47 0,-20 -4,-35 -12,-45 -9,-10 -18,-15 -30,-15 -11,0 -21,5 -30,16 -9,11 -13,26 -13,46 z"
         id="path495"
         inkscape:connector-curvature="0"
         style="fill:#1f1a17" /><path
         class="fil8"
         d="m 380,2938 c 0,-29 8,-50 24,-64 13,-12 30,-18 49,-18 22,0 40,7 54,21 13,15 20,34 20,59 0,21 -3,36 -9,48 -6,12 -15,21 -27,27 -11,7 -24,10 -38,10 -22,0 -39,-7 -53,-21 -14,-15 -20,-35 -20,-62 z m 27,0 c 0,21 4,36 13,46 9,10 20,15 33,15 14,0 25,-5 34,-15 8,-10 13,-26 13,-46 0,-20 -5,-35 -14,-45 -8,-10 -19,-15 -33,-15 -13,0 -24,5 -33,15 -9,10 -13,25 -13,45 z"
         id="path497"
         inkscape:connector-curvature="0"
         style="fill:#1f1a17" /><path
         class="fil8"
         d="m 558,3017 0,-157 24,0 0,24 c 6,-12 12,-19 17,-22 5,-4 11,-6 17,-6 9,0 18,3 28,9 l -10,25 c -6,-4 -13,-6 -19,-6 -6,0 -11,2 -16,5 -4,4 -8,8 -10,15 -3,9 -4,19 -4,31 l 0,82 -27,0 z"
         id="path499"
         inkscape:connector-curvature="0"
         style="fill:#1f1a17" /><path
         class="fil8"
         d="m 847,2960 26,3 c -3,18 -10,32 -22,42 -12,11 -26,16 -44,16 -21,0 -39,-7 -52,-21 -13,-14 -19,-35 -19,-61 0,-17 3,-32 8,-45 6,-12 14,-22 26,-28 11,-7 24,-10 38,-10 17,0 31,5 41,13 11,9 18,21 21,37 l -26,4 c -2,-11 -6,-19 -13,-24 -6,-5 -14,-8 -22,-8 -14,0 -25,5 -33,15 -9,9 -13,24 -13,45 0,21 4,37 12,46 8,10 19,15 32,15 11,0 19,-3 26,-10 7,-6 12,-16 14,-29 z"
         id="path501"
         inkscape:connector-curvature="0"
         style="fill:#1f1a17" /><path
         class="fil8"
         d="m 886,2938 c 0,-29 8,-50 24,-64 14,-12 30,-18 50,-18 21,0 39,7 53,21 14,15 20,34 20,59 0,21 -3,36 -9,48 -6,12 -15,21 -26,27 -12,7 -25,10 -38,10 -22,0 -40,-7 -54,-21 -13,-15 -20,-35 -20,-62 z m 27,0 c 0,21 5,36 13,46 9,10 20,15 34,15 13,0 24,-5 33,-15 9,-10 13,-26 13,-46 0,-20 -4,-35 -13,-45 -9,-10 -20,-15 -33,-15 -14,0 -25,5 -34,15 -8,10 -13,25 -13,45 z"
         id="path503"
         inkscape:connector-curvature="0"
         style="fill:#1f1a17" /><path
         class="fil8"
         d="m 1065,3017 0,-157 24,0 0,22 c 4,-8 11,-14 19,-19 8,-4 18,-7 28,-7 12,0 21,3 29,7 7,5 13,12 16,21 12,-19 28,-28 48,-28 16,0 28,5 36,13 9,9 13,22 13,40 l 0,108 -27,0 0,-99 c 0,-11 0,-18 -2,-23 -2,-5 -5,-9 -10,-11 -4,-3 -9,-5 -16,-5 -11,0 -20,4 -27,11 -7,8 -11,19 -11,36 l 0,91 -27,0 0,-102 c 0,-12 -2,-21 -6,-27 -5,-6 -12,-9 -22,-9 -7,0 -14,2 -20,6 -7,4 -12,10 -14,18 -3,7 -5,18 -5,33 l 0,81 -26,0 z"
         id="path505"
         inkscape:connector-curvature="0"
         style="fill:#1f1a17" /><path
         class="fil8"
         d="m 1318,3078 0,-218 24,0 0,20 c 6,-8 12,-14 19,-18 8,-4 16,-6 27,-6 13,0 25,4 35,11 10,6 18,16 23,29 6,12 8,26 8,41 0,16 -3,31 -8,44 -6,13 -15,23 -26,29 -11,7 -22,11 -34,11 -9,0 -17,-2 -24,-6 -7,-4 -13,-8 -18,-14 l 0,77 -26,0 z m 24,-139 c 0,21 4,36 12,45 8,10 18,15 30,15 12,0 22,-5 30,-15 9,-10 13,-26 13,-47 0,-20 -4,-35 -12,-45 -9,-10 -18,-15 -30,-15 -11,0 -21,5 -30,16 -9,11 -13,26 -13,46 z"
         id="path507"
         inkscape:connector-curvature="0"
         style="fill:#1f1a17" /><path
         class="fil8"
         d="m 1594,2966 28,4 c -4,16 -13,29 -24,37 -12,9 -27,14 -45,14 -23,0 -42,-7 -55,-22 -14,-14 -20,-34 -20,-59 0,-27 6,-47 20,-62 14,-15 31,-22 53,-22 21,0 38,7 52,22 13,14 20,34 20,60 0,2 0,4 0,7 l -118,0 c 1,18 6,31 15,40 9,9 20,14 33,14 10,0 18,-3 25,-8 7,-5 12,-13 16,-25 z m -87,-43 88,0 c -2,-13 -5,-23 -10,-29 -9,-11 -20,-16 -34,-16 -12,0 -22,4 -30,12 -9,9 -13,20 -14,33 z"
         id="path509"
         inkscape:connector-curvature="0"
         style="fill:#1f1a17" /><path
         class="fil8"
         d="m 1714,2993 4,24 c -8,1 -15,2 -21,2 -9,0 -17,-1 -22,-4 -6,-3 -9,-7 -11,-12 -3,-5 -4,-16 -4,-32 l 0,-91 -19,0 0,-20 19,0 0,-39 27,-16 0,55 27,0 0,20 -27,0 0,93 c 0,7 0,12 1,14 1,2 3,4 5,5 2,2 5,2 9,2 3,0 7,0 12,-1 z"
         id="path511"
         inkscape:connector-curvature="0"
         style="fill:#1f1a17" /><path
         class="fil8"
         d="m 1848,2966 27,4 c -4,16 -12,29 -24,37 -12,9 -27,14 -45,14 -23,0 -41,-7 -55,-22 -13,-14 -20,-34 -20,-59 0,-27 7,-47 20,-62 14,-15 32,-22 53,-22 21,0 39,7 52,22 13,14 20,34 20,60 0,2 0,4 0,7 l -118,0 c 1,18 6,31 15,40 9,9 20,14 33,14 10,0 18,-3 25,-8 7,-5 12,-13 17,-25 z m -88,-43 88,0 c -1,-13 -5,-23 -10,-29 -9,-11 -20,-16 -33,-16 -13,0 -23,4 -31,12 -9,9 -13,20 -14,33 z"
         id="path513"
         inkscape:connector-curvature="0"
         style="fill:#1f1a17" /><path
         class="fil8"
         d="m 1909,3017 0,-157 24,0 0,22 c 11,-17 28,-26 50,-26 9,0 18,2 26,5 8,4 14,8 18,14 4,5 7,12 8,19 1,5 2,14 2,26 l 0,97 -27,0 0,-96 c 0,-10 -1,-19 -3,-24 -2,-5 -6,-10 -11,-13 -6,-3 -12,-5 -19,-5 -11,0 -21,4 -29,11 -9,7 -13,21 -13,41 l 0,86 -26,0 z"
         id="path515"
         inkscape:connector-curvature="0"
         style="fill:#1f1a17" /><path
         class="fil8"
         d="m 2180,2960 27,3 c -3,18 -11,32 -22,42 -12,11 -27,16 -44,16 -22,0 -39,-7 -52,-21 -13,-14 -20,-35 -20,-61 0,-17 3,-32 9,-45 5,-12 14,-22 26,-28 11,-7 24,-10 37,-10 17,0 31,5 42,13 11,9 18,21 21,37 l -26,4 c -2,-11 -7,-19 -13,-24 -6,-5 -14,-8 -23,-8 -13,0 -24,5 -33,15 -8,9 -12,24 -12,45 0,21 4,37 12,46 8,10 19,15 32,15 10,0 19,-3 26,-10 7,-6 11,-16 13,-29 z"
         id="path517"
         inkscape:connector-curvature="0"
         style="fill:#1f1a17" /><path
         class="fil8"
         d="m 2230,2831 0,-31 26,0 0,31 -26,0 z m 0,186 0,-157 26,0 0,157 -26,0 z"
         id="path519"
         inkscape:connector-curvature="0"
         style="fill:#1f1a17" /><path
         class="fil8"
         d="m 2400,2998 c -10,8 -20,14 -29,18 -9,3 -19,5 -29,5 -18,0 -31,-4 -40,-13 -10,-8 -14,-19 -14,-32 0,-8 2,-15 5,-21 4,-7 8,-12 14,-16 6,-4 12,-7 19,-9 5,-1 13,-2 24,-4 21,-2 37,-5 47,-9 0,-3 1,-6 1,-7 0,-11 -3,-18 -8,-23 -7,-6 -17,-9 -30,-9 -13,0 -22,2 -28,7 -6,4 -11,12 -14,23 l -26,-3 c 3,-11 7,-21 12,-27 6,-7 13,-13 24,-16 10,-4 22,-6 35,-6 14,0 25,2 33,5 9,3 15,7 19,12 4,5 6,11 8,18 1,5 1,13 1,25 l 0,35 c 0,25 1,41 2,47 1,7 3,13 7,19 l -28,0 c -3,-5 -5,-12 -5,-19 z m -3,-60 c -9,4 -24,7 -43,10 -11,2 -19,4 -23,6 -5,2 -9,4 -11,8 -2,4 -4,8 -4,13 0,7 3,13 8,18 6,4 14,7 24,7 10,0 19,-2 27,-7 8,-4 14,-11 18,-18 3,-6 4,-15 4,-27 l 0,-10 z"
         id="path521"
         inkscape:connector-curvature="0"
         style="fill:#1f1a17" /><path
         class="fil8"
         d="m 2455,2970 26,-4 c 2,11 6,19 13,24 7,6 16,9 28,9 12,0 22,-3 28,-8 5,-5 8,-11 8,-17 0,-6 -2,-11 -7,-14 -4,-3 -13,-6 -28,-10 -19,-4 -33,-9 -40,-12 -8,-4 -14,-9 -18,-15 -4,-7 -6,-14 -6,-21 0,-7 2,-14 5,-20 4,-6 8,-11 13,-15 5,-3 10,-6 17,-8 8,-2 15,-3 23,-3 13,0 24,2 33,6 9,3 16,8 21,14 4,6 7,14 9,24 l -26,4 c -1,-8 -5,-14 -10,-19 -6,-5 -14,-7 -25,-7 -12,0 -21,2 -26,6 -5,4 -8,9 -8,14 0,4 1,7 4,10 2,3 5,5 10,7 2,1 10,3 23,7 19,5 32,9 40,12 7,3 13,8 17,14 5,6 7,14 7,23 0,9 -3,17 -8,25 -5,8 -13,14 -22,18 -10,5 -21,7 -34,7 -20,0 -36,-5 -46,-13 -11,-9 -18,-21 -21,-38 z"
         id="path523"
         inkscape:connector-curvature="0"
         style="fill:#1f1a17" /><path
         class="fil8"
         d="m 2625,3017 0,-30 31,0 0,30 -31,0 z"
         id="path525"
         inkscape:connector-curvature="0"
         style="fill:#1f1a17" /></g></g></svg>